<svg width="24" height="24" viewBox="0 0 24 24" fill="none" xmlns="http://www.w3.org/2000/svg">
<path d="M6.20703 22C5.58828 22 5.05878 21.7826 4.61853 21.3478C4.17828 20.913 3.95778 20.3896 3.95703 19.7778V5.33333C3.63828 5.33333 3.37129 5.22667 3.15604 5.01333C2.94079 4.8 2.83279 4.5363 2.83204 4.22222C2.83129 3.90815 2.93929 3.64444 3.15604 3.43111C3.37279 3.21778 3.63978 3.11111 3.95703 3.11111H8.45703C8.45703 2.7963 8.56503 2.53259 8.78103 2.32C8.99703 2.10741 9.26403 2.00074 9.58203 2H14.082C14.4008 2 14.6682 2.10667 14.8842 2.32C15.1002 2.53333 15.2078 2.79704 15.207 3.11111H19.707C20.0258 3.11111 20.2932 3.21778 20.5092 3.43111C20.7252 3.64444 20.8328 3.90815 20.832 4.22222C20.8313 4.5363 20.7233 4.80037 20.508 5.01444C20.2928 5.22852 20.0258 5.33481 19.707 5.33333V19.7778C19.707 20.3889 19.4869 20.9122 19.0467 21.3478C18.6064 21.7833 18.0765 22.0007 17.457 22H6.20703ZM17.457 5.33333H6.20703V19.7778H17.457V5.33333ZM9.58203 17.5556C9.90078 17.5556 10.1682 17.4489 10.3842 17.2356C10.6002 17.0222 10.7078 16.7585 10.707 16.4444V8.66667C10.707 8.35185 10.599 8.08815 10.383 7.87556C10.167 7.66296 9.90003 7.5563 9.58203 7.55556C9.26403 7.55481 8.99703 7.66148 8.78103 7.87556C8.56503 8.08963 8.45703 8.35333 8.45703 8.66667V16.4444C8.45703 16.7593 8.56503 17.0233 8.78103 17.2367C8.99703 17.45 9.26403 17.5563 9.58203 17.5556ZM14.082 17.5556C14.4008 17.5556 14.6682 17.4489 14.8842 17.2356C15.1002 17.0222 15.2078 16.7585 15.207 16.4444V8.66667C15.207 8.35185 15.099 8.08815 14.883 7.87556C14.667 7.66296 14.4 7.5563 14.082 7.55556C13.764 7.55481 13.497 7.66148 13.281 7.87556C13.065 8.08963 12.957 8.35333 12.957 8.66667V16.4444C12.957 16.7593 13.065 17.0233 13.281 17.2367C13.497 17.45 13.764 17.5563 14.082 17.5556Z" fill="#636771"/>
</svg>
