<svg width="400" height="400" viewBox="0 0 400 400" fill="none" xmlns="http://www.w3.org/2000/svg">
<path d="M329.92 265.105H351.104V256.153H329.92V265.105Z" fill="#EBEBEB"/>
<path d="M341.744 276.392L352.424 276.168L357.688 276.08C359.44 276.04 361.184 276.08 362.928 276.032L362.568 276.392V267.44L362.968 267.84L352.376 267.792C348.848 267.792 345.312 267.696 341.784 267.656L342 267.44C342 268.904 341.936 270.376 341.896 271.864L341.744 276.392ZM341.744 276.392L341.6 272C341.56 270.512 341.504 269 341.496 267.48V267.2H341.72C345.248 267.152 348.784 267.072 352.312 267.064L362.904 267.016H363.304V267.416L363.256 276.368V276.728H362.904C361.12 276.728 359.328 276.728 357.544 276.688L352.216 276.6L341.744 276.392Z" fill="#EBEBEB"/>
<path d="M185.712 188.466L196.4 188.242L201.656 188.154C203.408 188.114 205.152 188.154 206.896 188.114L206.536 188.466L206.496 179.514L206.896 179.914L196.304 179.866C192.776 179.866 189.24 179.778 185.712 179.73L185.928 179.514C185.928 180.978 185.864 182.45 185.824 183.946L185.712 188.466ZM185.712 188.466L185.6 184.002C185.56 182.514 185.512 181.002 185.496 179.482V179.266H185.72C189.248 179.226 192.784 179.138 196.312 179.13L206.904 179.082H207.304V179.482L207.264 188.434V188.802H206.912C205.128 188.802 203.336 188.802 201.56 188.754L196.224 188.666L185.712 188.466Z" fill="#EBEBEB"/>
<path d="M197.527 199.754H218.711V190.802H197.527V199.754Z" fill="#EBEBEB"/>
<path d="M173.712 199.754L184.4 199.53L189.664 199.442C191.416 199.402 193.152 199.442 194.896 199.402L194.544 199.754L194.496 190.802L194.896 191.202L184.304 191.154C180.776 191.154 177.248 191.066 173.712 191.018L173.936 190.802C173.936 192.266 173.864 193.738 173.832 195.234L173.712 199.754ZM173.712 199.754L173.6 195.322C173.6 193.834 173.512 192.322 173.496 190.802V190.586H173.712C177.248 190.586 180.776 190.458 184.304 190.45L194.896 190.402H195.304V190.802L195.264 199.754V200.114H194.904C193.12 200.114 191.328 200.114 189.552 200.066L184.224 199.978L173.712 199.754Z" fill="#EBEBEB"/>
<path d="M218.328 86.3711H239.512V77.4191H218.328V86.3711Z" fill="#EBEBEB"/>
<path d="M37.0715 276.392L47.7595 276.168L53.0235 276.08C54.7675 276.04 56.5115 276.08 58.2555 276.032L57.9035 276.392L57.8555 267.44L58.2555 267.84L47.6635 267.792C44.1355 267.792 40.5995 267.696 37.0715 267.656L37.2875 267.44C37.2875 268.904 37.2235 270.376 37.1835 271.864L37.0715 276.392ZM37.0715 276.392L36.9595 272C36.9195 270.512 36.8715 269 36.8555 267.48V267.2H37.0715C40.5995 267.152 44.1355 267.072 47.6635 267.064L58.2555 267.016H58.6555V267.416V276.368V276.728H58.2955C56.5115 276.728 54.7195 276.728 52.9435 276.688L47.6155 276.6L37.0715 276.392Z" fill="#EBEBEB"/>
<path d="M48.8873 49.7622L59.5753 49.5382L64.8393 49.4502C66.5913 49.4102 68.3273 49.4502 70.0713 49.4022L69.7193 49.7622L69.6713 40.8022L70.0713 41.2022L59.4793 41.1542C55.9513 41.1542 52.4233 41.0582 48.8873 41.0182L49.1113 40.8022C49.1113 42.2662 49.0393 43.7382 48.9993 45.2342L48.8873 49.7622ZM48.8873 49.7622L48.7993 45.3302C48.7993 43.8422 48.7113 42.3302 48.6953 40.8102V40.5942H48.9113C52.4473 40.5542 55.9753 40.4662 59.5033 40.4582L70.0953 40.4102H70.5033V40.8022L70.3993 49.7622V50.1222H70.0393C68.2553 50.1222 66.4633 50.1222 64.6873 50.0742L59.3593 49.9862L48.8873 49.7622Z" fill="#EBEBEB"/>
<path d="M37.0719 61.0508H58.2559V52.0988H37.0719V61.0508Z" fill="#EBEBEB"/>
<path d="M341.744 49.7622L352.424 49.5382L357.688 49.4502C359.44 49.4102 361.184 49.4502 362.928 49.4022L362.568 49.7622V40.8102L362.968 41.2102L352.376 41.1622C348.848 41.1622 345.312 41.0662 341.784 41.0262L342 40.8102C342 42.2742 341.936 43.7462 341.896 45.2422L341.744 49.7622ZM341.744 49.7622L341.6 45.3302C341.56 43.8422 341.504 42.3302 341.496 40.8102V40.5942H341.72C345.248 40.5542 348.784 40.4662 352.312 40.4582L362.904 40.4102H363.304V40.8022L363.28 49.7622V50.1222H362.928C361.144 50.1222 359.352 50.1222 357.568 50.0742L352.24 49.9862L341.744 49.7622Z" fill="#EBEBEB"/>
<path d="M135.415 305.418H77.8555V369.154H135.415V305.418Z" fill="#EBEBEB"/>
<path d="M48.1433 369.16H77.8633L77.8633 305.416H48.1433L48.1433 369.16Z" fill="#DBDBDB"/>
<path d="M50.1836 364.801C52.3916 360.267 54.5729 355.734 56.7276 351.201L63.1996 337.417L69.5996 323.649C71.7329 319.051 73.8236 314.438 75.8716 309.809C73.6636 314.342 71.4823 318.889 69.3276 323.449L62.8796 337.161L56.4796 350.929C54.3516 355.531 52.2529 360.155 50.1836 364.801Z" fill="#EBEBEB"/>
<path d="M50.1836 309.809C52.2529 314.443 54.3436 319.057 56.4556 323.649L62.8556 337.417L69.3036 351.129C71.4636 355.689 73.6449 360.222 75.8476 364.729C73.7783 360.099 71.6876 355.486 69.5756 350.889L63.1756 337.121L56.7276 323.409C54.5676 318.875 52.3863 314.342 50.1836 309.809Z" fill="#EBEBEB"/>
<path d="M135.415 209.152H77.8555V268.496H135.415V209.152Z" fill="#EBEBEB"/>
<path d="M48.1433 268.504H77.8633L77.8633 209.152H48.1433L48.1433 268.504Z" fill="#DBDBDB"/>
<path d="M101.752 222.928H102.976H103.888L104.408 221.864L105.144 222.928L106.136 220.744L107.08 222.928H109.776H111L111.448 221.472L111.864 222.928H112.664V209.152H101.752V222.928Z" fill="#DBDBDB"/>
<path d="M50.1836 264.72C52.3916 260.506 54.5729 256.266 56.7276 252L63.1756 239.2L69.5756 226.4C71.7089 222.133 73.7996 217.837 75.8476 213.512C73.6396 217.736 71.4583 221.97 69.3036 226.216L62.8556 238.976L56.4556 251.776C54.3436 256.09 52.2529 260.405 50.1836 264.72Z" fill="#EBEBEB"/>
<path d="M50.1836 213.547C52.2529 217.851 54.3436 222.136 56.4556 226.403L62.8556 239.203L69.3036 252.003C71.4636 256.27 73.6449 260.504 75.8476 264.707C73.7783 260.398 71.6876 256.102 69.5756 251.819L63.1756 239.019L56.7276 226.259C54.5676 222.008 52.3863 217.771 50.1836 213.547Z" fill="#EBEBEB"/>
<path d="M81.6471 264.816H88.0391V258.424H81.6471V264.816Z" fill="white"/>
<path d="M131.583 268.504H74.0234V305.416H131.583V268.504Z" fill="#DBDBDB"/>
<path d="M44.3034 305.418H74.0234V268.506H44.3034V305.418Z" fill="#C7C7C7"/>
<path d="M97.9199 282.28H99.1359H100.056L100.576 281.216L101.312 282.28L102.304 280.096L103.248 282.28H105.936H107.168L107.608 280.824L108.032 282.28H108.832V268.504H97.9199V282.28Z" fill="white"/>
<path d="M46.3516 303.2C48.5542 300.533 50.7356 297.843 52.8956 295.128L59.3436 287.016L65.7436 278.864C67.8449 276.144 69.9329 273.413 72.0076 270.672C69.8102 273.339 67.6289 276.029 65.4636 278.744L59.0156 286.864L52.6156 295.008C50.5089 297.744 48.4209 300.475 46.3516 303.2Z" fill="#DBDBDB"/>
<path d="M46.3516 270.699C48.4262 273.441 50.5169 276.171 52.6236 278.891L59.0236 287.043L65.4716 295.155C67.6049 297.854 69.7809 300.537 71.9996 303.203C69.9356 300.462 67.8476 297.731 65.7356 295.011L59.3356 286.867L52.8876 278.747C50.7329 276.07 48.5542 273.387 46.3516 270.699Z" fill="#DBDBDB"/>
<path d="M355.695 313.402H298.135V369.162H355.695V313.402Z" fill="#DBDBDB"/>
<path d="M268.423 369.16H298.143V313.4H268.423V369.16Z" fill="#C7C7C7"/>
<path d="M322.031 327.178H323.247H324.167L324.687 326.114L325.423 327.178L326.415 324.994L327.359 327.178H330.047H331.279L331.727 325.714L332.143 327.178H332.943V313.402H322.031V327.178Z" fill="white"/>
<path d="M270.463 365.843C272.666 361.795 274.847 357.731 277.007 353.651L283.455 341.395L289.855 329.091C291.988 324.979 294.076 320.856 296.119 316.723C293.922 320.771 291.74 324.835 289.575 328.915L283.127 341.163L276.767 353.475C274.655 357.587 272.554 361.709 270.463 365.843Z" fill="#DBDBDB"/>
<path d="M270.463 316.723C272.538 320.856 274.628 324.979 276.735 329.091L283.095 341.395L289.543 353.651C291.703 357.731 293.884 361.795 296.087 365.843C294.023 361.704 291.935 357.581 289.823 353.475L283.423 341.163L276.975 328.915C274.836 324.835 272.666 320.771 270.463 316.723Z" fill="#DBDBDB"/>
<path d="M255.615 37.6016V173.682H349.263V37.6016H255.615ZM345.807 170.186H259.071V41.0176H345.807V170.186Z" fill="#EBEBEB"/>
<path d="M345.808 41.0156H259.072V170.184H345.808V41.0156Z" fill="white"/>
<path d="M259.071 111.328L345.807 111.328V107.872L259.071 107.872V111.328Z" fill="#EBEBEB"/>
<path d="M249.247 183.555H355.623V173.635H249.247V183.555Z" fill="#DBDBDB"/>
<path d="M252.072 187.523L352.808 189.635V183.555H252.072V187.523Z" fill="#EBEBEB"/>
<path d="M259.072 41.0156H345.808V129.76H259.072V41.0156ZM342.608 44.2156H262.272V126.56H342.608V44.2156Z" fill="#DBDBDB"/>
<path d="M318.128 41.0156H316.4V126.56H318.128V41.0156Z" fill="#DBDBDB"/>
<path d="M288.48 41.0156H286.752V126.56H288.48V41.0156Z" fill="#DBDBDB"/>
<path d="M50.7363 37.6016V173.682H144.384V37.6016H50.7363ZM140.928 170.186H54.1923V41.0176H140.928V170.186Z" fill="#EBEBEB"/>
<path d="M140.927 41.0156H54.1914V170.184H140.927V41.0156Z" fill="white"/>
<path d="M54.1917 111.328L140.928 111.328V107.872L54.1917 107.872V111.328Z" fill="#EBEBEB"/>
<path d="M44.3681 183.555H150.744V173.635H44.3681V183.555Z" fill="#DBDBDB"/>
<path d="M47.1914 187.523L147.927 189.635V183.555H47.1914V187.523Z" fill="#EBEBEB"/>
<path d="M54.1914 41.0156H140.927V129.76H54.1914V41.0156ZM137.727 44.2156H57.3914V126.56H137.727V44.2156Z" fill="#DBDBDB"/>
<path d="M113.248 41.0156H111.52V126.56H113.248V41.0156Z" fill="#DBDBDB"/>
<path d="M83.5991 41.0156H81.8711V126.56H83.5991V41.0156Z" fill="#DBDBDB"/>
<path d="M270.969 303.238H191.225V369.126H270.969V303.238Z" fill="#BA68C8"/>
<path opacity="0.1" d="M270.969 303.238H191.225V369.126H270.969V303.238Z" fill="black"/>
<path d="M302.569 303.246H270.969V369.134H302.569V303.246Z" fill="#BA68C8"/>
<path opacity="0.2" d="M302.569 303.246H270.969V369.134H302.569V303.246Z" fill="black"/>
<path d="M300.385 364.593C298.049 359.91 295.731 355.212 293.433 350.497L286.577 336.321L279.809 322.089C277.569 317.337 275.347 312.569 273.145 307.785C275.491 312.473 277.811 317.172 280.105 321.881L286.953 336.057L293.721 350.289C295.971 355.041 298.193 359.809 300.385 364.593Z" fill="#BA68C8"/>
<path d="M300.385 307.785C298.187 312.585 295.966 317.353 293.721 322.089L286.953 336.321L280.105 350.497C277.806 355.206 275.486 359.905 273.145 364.593C275.347 359.793 277.569 355.025 279.809 350.289L286.577 336.057L293.433 321.889C295.731 317.169 298.049 312.468 300.385 307.785Z" fill="#BA68C8"/>
<path d="M236.737 317.478H235.481H234.529L233.993 316.382L233.233 317.478L232.201 315.222L231.233 317.478H228.449H227.177L226.713 315.974L226.281 317.478H225.457V303.246H236.737V317.478Z" fill="white"/>
<path d="M275.777 237.359H216.281V303.239H275.777V237.359Z" fill="#BA68C8"/>
<path d="M306.497 237.359H275.777V303.247H306.497V237.359Z" fill="#BA68C8"/>
<path opacity="0.1" d="M306.497 237.359H275.777V303.247H306.497V237.359Z" fill="black"/>
<g opacity="0.1">
<path d="M271.417 298.703C267.049 294.015 262.719 289.317 258.425 284.607L245.601 270.399L232.969 256.167C228.777 251.415 224.628 246.647 220.521 241.863C224.895 246.551 229.226 251.253 233.514 255.967L246.314 270.135L258.945 284.367C263.153 289.141 267.311 293.919 271.417 298.703Z" fill="black"/>
<path d="M271.417 241.895C267.305 246.695 263.156 251.463 258.969 256.199L246.337 270.399L233.537 284.575C229.27 289.284 224.94 293.983 220.545 298.671C224.657 293.871 228.806 289.103 232.993 284.367L245.601 270.167L258.401 255.999C262.705 251.279 267.044 246.577 271.417 241.895Z" fill="black"/>
</g>
<path d="M302.177 292.094H296.793V299.694H302.177V292.094Z" fill="white"/>
<path d="M33.1602 369.162L74.8722 368.962L116.584 368.898L200 368.762L283.416 368.898L325.128 368.962L366.84 369.162L325.128 369.354L283.416 369.426L200 369.562L116.584 369.426L74.8722 369.354L33.1602 369.162Z" fill="#263238"/>
<path d="M231.776 142.239C231.328 141.951 230.88 141.671 230.432 141.399L230.744 140.879L232.104 141.735L231.776 142.239Z" fill="#263238"/>
<path d="M212.24 222.398H211.664V221.798C212.732 221.821 213.801 221.781 214.864 221.678L214.928 222.278C214.056 222.342 213.144 222.398 212.24 222.398ZM218.176 221.742L218.048 221.158C219.089 220.922 220.11 220.609 221.104 220.222L221.32 220.782C220.297 221.174 219.246 221.489 218.176 221.726V221.742ZM224.28 219.342L223.984 218.822C224.904 218.285 225.778 217.675 226.6 216.998L226.984 217.454C226.137 218.16 225.233 218.794 224.28 219.35V219.342ZM229.344 215.182L228.904 214.774C229.622 213.985 230.282 213.145 230.88 212.262L231.376 212.598C230.763 213.513 230.084 214.382 229.344 215.198V215.182ZM233.008 209.75L232.464 209.494C232.92 208.53 233.292 207.529 233.576 206.502L234.152 206.662C233.862 207.725 233.479 208.761 233.008 209.758V209.75ZM234.736 203.414L234.136 203.366C234.136 202.934 234.192 202.494 234.192 202.07C234.19 201.476 234.155 200.883 234.088 200.294C233.465 200.252 232.846 200.174 232.232 200.062L232.336 199.47C233.313 199.646 234.303 199.737 235.296 199.742H235.504V200.342H235.288H234.688C234.752 200.921 234.784 201.503 234.784 202.086C234.792 202.518 234.768 202.974 234.736 203.422V203.414ZM238.792 199.942L238.656 199.358C239.685 199.114 240.681 198.749 241.624 198.27L241.896 198.806C240.91 199.308 239.868 199.692 238.792 199.95V199.942ZM229.048 199.198C228.014 198.825 227.01 198.37 226.048 197.838L226.344 197.318C227.275 197.832 228.246 198.271 229.248 198.63L229.048 199.198ZM233.352 197.086C233.001 196.085 232.54 195.127 231.976 194.23L232.48 193.91C233.073 194.843 233.556 195.842 233.92 196.886L233.352 197.086ZM244.648 196.958L244.264 196.502C245.076 195.816 245.818 195.052 246.48 194.222L246.944 194.598C246.261 195.467 245.491 196.266 244.648 196.982V196.958ZM223.336 195.998L223.168 195.838C222.376 195.142 221.746 194.282 221.32 193.318L221.88 193.094C222.27 193.976 222.849 194.763 223.576 195.398L223.736 195.542L223.336 195.998ZM248.8 191.91L248.288 191.598C248.848 190.67 249.368 189.718 249.824 188.782L250.368 189.046C249.904 189.998 249.376 190.966 248.8 191.91ZM229.984 191.79C229.253 191.082 228.449 190.454 227.584 189.918L227.464 189.838L227.776 189.326L227.904 189.406C228.796 189.969 229.625 190.626 230.376 191.366L229.984 191.79ZM222.04 190.246L221.544 189.91C221.887 189.428 222.341 189.037 222.867 188.77C223.394 188.502 223.977 188.366 224.568 188.374V188.974C224.076 188.971 223.591 189.085 223.151 189.306C222.712 189.527 222.331 189.849 222.04 190.246ZM251.64 186.03L251.08 185.822C251.451 184.818 251.768 183.795 252.032 182.758L252.608 182.902C252.35 183.962 252.03 185.007 251.648 186.03H251.64ZM253.24 179.686L252.64 179.606C252.783 178.545 252.866 177.476 252.888 176.406H253.488C253.466 177.503 253.383 178.598 253.24 179.686ZM252.776 173.206C252.68 172.132 252.528 171.064 252.32 170.006L252.912 169.886C253.121 170.957 253.276 172.039 253.376 173.126L252.776 173.206ZM251.536 166.918C251.232 165.91 250.872 164.894 250.456 163.886L251.016 163.662C251.432 164.678 251.816 165.718 252.112 166.742L251.536 166.918ZM249.136 160.958C248.656 160.022 248.12 159.078 247.536 158.15L248.048 157.838C248.624 158.774 249.168 159.734 249.648 160.686L249.136 160.958ZM245.768 155.47C245.152 154.606 244.488 153.75 243.8 152.918L244.264 152.534C244.96 153.374 245.632 154.246 246.256 155.118L245.768 155.47ZM241.672 150.494C240.944 149.694 240.176 148.95 239.392 148.214L239.8 147.774C240.6 148.526 241.4 149.302 242.104 150.086L241.672 150.494ZM236.976 146.07C236.176 145.39 235.304 144.718 234.448 144.078L234.8 143.598C235.672 144.238 236.536 144.918 237.36 145.614L236.976 146.07Z" fill="#263238"/>
<path d="M208.313 222.11C207.775 222.043 207.241 221.947 206.713 221.822L206.857 221.238C206.857 221.238 207.433 221.382 208.393 221.518L208.313 222.11Z" fill="#263238"/>
<path d="M200.24 220.917C199.864 224.117 206.4 225.909 206.896 221.717C207.392 217.525 200.616 217.693 200.24 220.917Z" fill="#263238"/>
<path d="M208.801 226.214C208.193 227.422 206.041 227.59 203.817 226.038C202.306 224.885 201.03 223.454 200.057 221.822C201.937 221.626 203.838 221.792 205.657 222.31C208.289 223.198 209.441 224.99 208.801 226.214Z" fill="#EBEBEB"/>
<path d="M200.08 221.824C201.344 222.392 202.584 223.008 203.824 223.616C205.064 224.224 206.288 224.872 207.496 225.544C206.232 224.976 204.992 224.36 203.752 223.752C202.512 223.144 201.288 222.496 200.08 221.824Z" fill="#263238"/>
<path d="M205.888 226.192C205.6 225.858 205.333 225.509 205.088 225.144C204.846 224.781 204.627 224.405 204.432 224.016C204.719 224.349 204.986 224.699 205.232 225.064C205.475 225.425 205.694 225.802 205.888 226.192Z" fill="#263238"/>
<path d="M203.201 223.384C203.641 223.27 204.087 223.179 204.537 223.112C204.991 223.048 205.447 223.008 205.905 222.992C205.019 223.213 204.113 223.344 203.201 223.384Z" fill="#263238"/>
<path d="M202.504 223.91C202.229 223.568 202.032 223.169 201.928 222.742C202.203 223.085 202.4 223.483 202.504 223.91Z" fill="#263238"/>
<path d="M209.856 217.838C209.544 216.518 207.496 215.862 204.976 216.854C203.237 217.628 201.662 218.728 200.336 220.094C202.134 220.717 204.035 220.988 205.936 220.894C208.632 220.67 210.176 219.198 209.856 217.838Z" fill="#EBEBEB"/>
<path d="M200.336 220.096C201.696 219.84 203.048 219.52 204.392 219.208C205.736 218.896 207.08 218.56 208.392 218.184C207.04 218.44 205.688 218.76 204.344 219.072C203 219.384 201.672 219.72 200.336 220.096Z" fill="#263238"/>
<path d="M207 217.184C206.652 217.431 206.318 217.698 206 217.984C205.682 218.282 205.38 218.597 205.096 218.928C205.447 218.685 205.782 218.417 206.096 218.128C206.415 217.831 206.717 217.516 207 217.184Z" fill="#263238"/>
<path d="M203.721 219.293C204.531 219.715 205.384 220.05 206.265 220.293C205.456 219.868 204.603 219.532 203.721 219.293Z" fill="#263238"/>
<path d="M203.201 218.621C203.027 218.752 202.868 218.902 202.729 219.069C202.591 219.241 202.47 219.425 202.369 219.621C202.544 219.488 202.702 219.335 202.841 219.165C202.986 219.002 203.108 218.819 203.201 218.621Z" fill="#263238"/>
<path d="M200.241 220.917C200.47 220.944 200.686 221.038 200.862 221.187C201.038 221.337 201.165 221.535 201.229 221.756C201.292 221.978 201.288 222.214 201.218 222.434C201.147 222.653 201.014 222.847 200.833 222.991C200.653 223.135 200.434 223.222 200.204 223.241C199.974 223.261 199.743 223.211 199.541 223.1C199.339 222.989 199.175 222.82 199.069 222.615C198.962 222.41 198.919 222.178 198.945 221.949C198.981 221.641 199.137 221.36 199.38 221.166C199.623 220.973 199.932 220.883 200.241 220.917Z" fill="#455A64"/>
<path d="M200.513 218.59C200.666 218.608 200.814 218.656 200.948 218.731C201.082 218.806 201.201 218.906 201.296 219.027C201.392 219.148 201.462 219.286 201.504 219.434C201.546 219.582 201.559 219.737 201.541 219.89C201.523 220.043 201.475 220.191 201.4 220.325C201.325 220.459 201.225 220.578 201.104 220.673C200.983 220.769 200.845 220.839 200.697 220.881C200.549 220.923 200.394 220.936 200.241 220.918C199.932 220.882 199.651 220.725 199.458 220.481C199.265 220.237 199.177 219.927 199.213 219.618C199.249 219.309 199.406 219.028 199.65 218.835C199.894 218.642 200.204 218.554 200.513 218.59Z" fill="#455A64"/>
<path d="M128.001 296.25C128.001 296.25 110.945 330.402 110.937 330.402C109.529 337.45 108.425 343.666 108.145 346.93C108.141 346.948 108.141 346.968 108.145 346.986C107.997 347.743 108.027 348.523 108.233 349.266C108.229 349.284 108.229 349.304 108.233 349.322C110.049 351.162 166.097 364.066 168.233 363.858C170.369 363.65 169.913 357.626 168.137 355.394C166.361 353.162 147.105 338.594 147.105 338.594L163.777 304.386L128.001 296.25Z" fill="#F7A9A0"/>
<path d="M167.384 363.89C165.28 364.098 110.072 351.186 108.264 349.354C108.261 349.335 108.261 349.317 108.264 349.298C108.054 348.556 108.022 347.775 108.168 347.018C108.161 347 108.161 346.98 108.168 346.962C108.44 343.698 109.552 337.482 110.952 330.426L115.032 322.25L150.4 331.946L147.136 338.65C147.136 338.65 165.536 353.186 167.32 355.45C169.104 357.714 169.496 363.69 167.384 363.89Z" fill="#EBEBEB"/>
<path d="M168.154 362.993C166.018 363.153 109.834 348.833 108.042 346.929C107.354 346.217 108.962 337.905 111.194 327.921L111.266 327.609L147.618 336.449L147.45 337.057C147.45 337.057 166.498 352.161 168.25 354.465C170.002 356.769 170.282 362.841 168.154 362.993Z" fill="#263238"/>
<path d="M168.065 360.648C158.657 358.008 120.449 348.216 110.945 346.312C110.865 346.312 110.849 346.352 110.945 346.376C120.217 349.2 158.505 358.68 168.049 360.776C168.233 360.848 168.265 360.704 168.065 360.648Z" fill="white"/>
<path d="M150.464 337.942C146.912 336.294 142.208 335.702 138.688 337.638C138.552 337.71 138.688 337.902 138.784 337.894C142.639 337.653 146.51 337.824 150.328 338.406C150.384 338.41 150.44 338.394 150.486 338.362C150.532 338.329 150.565 338.283 150.581 338.229C150.597 338.175 150.594 338.117 150.573 338.065C150.552 338.013 150.513 337.97 150.464 337.942Z" fill="white"/>
<path d="M152.737 340.249C149.193 338.609 144.489 338.017 140.961 339.945C140.825 340.017 140.961 340.209 141.065 340.209C144.921 339.963 148.791 340.135 152.609 340.721C152.668 340.727 152.726 340.712 152.774 340.678C152.823 340.645 152.858 340.596 152.873 340.539C152.888 340.483 152.883 340.422 152.858 340.369C152.833 340.316 152.791 340.274 152.737 340.249Z" fill="white"/>
<path d="M155.017 342.561C151.465 340.913 146.761 340.321 143.241 342.249C143.105 342.329 143.241 342.521 143.345 342.513C147.197 342.272 151.065 342.443 154.881 343.025C154.937 343.028 154.992 343.013 155.038 342.98C155.084 342.948 155.118 342.901 155.134 342.847C155.149 342.793 155.147 342.736 155.125 342.684C155.104 342.632 155.066 342.588 155.017 342.561Z" fill="white"/>
<path d="M169.521 361.201C170.425 361.841 169.345 365.161 168.553 365.249C167.761 365.337 106.569 349.449 105.601 348.945C104.633 348.441 105.961 344.809 107.201 344.945C108.441 345.081 169.521 361.201 169.521 361.201Z" fill="#BA68C8"/>
<path d="M118.936 336.264C115.384 333.192 110.6 338.712 114.136 341.792C117.672 344.872 122.496 339.344 118.936 336.264Z" fill="white"/>
<path d="M115.137 319.519L156.129 329.855C156.129 329.855 194.337 260.903 193.481 243.375C192.305 219.199 163.921 144.863 163.921 144.863H129.937C129.937 144.863 152.489 225.223 152.801 238.743C152.937 245.815 115.137 319.519 115.137 319.519Z" fill="#455A64"/>
<path d="M157.881 321.538C155.697 320.665 136.185 315.033 121.625 311.938C121.609 311.943 121.595 311.953 121.586 311.967C121.576 311.98 121.57 311.997 121.57 312.014C121.57 312.03 121.576 312.047 121.586 312.06C121.595 312.074 121.609 312.084 121.625 312.089C126.209 313.689 155.137 321.313 157.849 321.689C157.913 321.713 157.977 321.602 157.881 321.538Z" fill="#263238"/>
<path d="M155.618 221.479C152.914 210.135 150.018 198.823 146.978 187.583C143.938 176.343 140.682 164.999 137.106 153.847C136.674 152.479 136.218 151.127 135.778 149.767C135.765 149.724 135.735 149.687 135.696 149.666C135.656 149.644 135.609 149.639 135.566 149.651C135.522 149.664 135.485 149.694 135.464 149.733C135.442 149.773 135.437 149.82 135.45 149.863C138.65 160.975 141.85 172.063 144.882 183.215C147.914 194.367 150.802 205.551 153.522 216.815C154.202 219.599 154.866 222.375 155.514 225.167C156.267 228.029 156.849 230.933 157.258 233.863C157.594 236.664 157.401 239.502 156.69 242.231C155.918 244.913 154.908 247.521 153.674 250.023C148.772 260.663 143.874 271.306 138.978 281.951C134.082 292.623 133.29 295.055 128.578 305.815C127.994 307.151 127.41 308.487 126.85 309.815C126.85 309.903 126.938 309.983 126.986 309.887C132.346 299.343 133.17 296.807 138.186 286.071C143.202 275.335 148.186 264.471 153.162 253.663C155.402 248.783 158.034 243.807 158.37 238.351C158.706 232.655 156.914 226.943 155.618 221.479Z" fill="#263238"/>
<path d="M157.473 309.752L158.785 347.352C159.001 354.552 159.313 360.848 159.785 364.088C159.781 364.107 159.781 364.126 159.785 364.144C159.811 364.913 160.014 365.666 160.377 366.344L160.425 366.392C162.609 367.776 220.121 367.744 222.129 367.064C224.137 366.384 222.361 360.624 220.129 358.84C217.897 357.056 195.865 347.224 195.865 347.224L194.193 309.664L157.473 309.752Z" fill="#F7A9A0"/>
<path d="M158.514 339.658C158.514 339.658 158.786 347.354 158.786 347.378C159.002 354.578 159.314 360.874 159.786 364.114C159.782 364.132 159.782 364.152 159.786 364.17C159.895 364.924 160.094 365.663 160.378 366.37L160.426 366.418C162.61 367.802 220.122 367.77 222.13 367.09C224.138 366.41 222.362 360.65 220.13 358.866C217.898 357.082 195.866 347.25 195.866 347.25L195.698 339.418L158.514 339.658Z" fill="#EBEBEB"/>
<path d="M222.161 367.024C220.129 367.672 162.161 366.776 159.969 365.336C159.169 364.8 158.769 356.352 158.625 346.136V345.816L196.033 345.976V346.616C196.033 346.616 218.073 356.88 220.305 358.712C222.537 360.544 224.201 366.4 222.161 367.024Z" fill="#263238"/>
<path d="M221.544 364.8C211.776 364.408 172.336 363.752 162.648 364.112C162.568 364.112 162.568 364.168 162.648 364.168C172.32 364.768 211.768 365.112 221.544 364.968C221.744 364.92 221.752 364.8 221.544 364.8Z" fill="white"/>
<path d="M199.153 346.758C195.321 345.958 190.601 346.494 187.625 349.158C187.505 349.262 187.625 349.422 187.785 349.39C191.478 348.263 195.281 347.531 199.129 347.206C199.175 347.192 199.216 347.163 199.246 347.124C199.275 347.086 199.293 347.039 199.295 346.991C199.298 346.942 199.286 346.894 199.26 346.852C199.235 346.811 199.197 346.778 199.153 346.758Z" fill="white"/>
<path d="M201.905 348.471C198.065 347.671 193.353 348.215 190.377 350.911C190.257 351.015 190.377 351.175 190.529 351.135C194.225 350.007 198.03 349.277 201.881 348.959C201.939 348.952 201.992 348.924 202.032 348.882C202.072 348.839 202.095 348.783 202.098 348.725C202.101 348.667 202.083 348.609 202.048 348.563C202.013 348.516 201.962 348.484 201.905 348.471Z" fill="white"/>
<path d="M204.649 350.192C200.817 349.392 196.105 349.928 193.121 352.592C193.009 352.696 193.121 352.856 193.281 352.824C196.975 351.697 200.778 350.965 204.625 350.64C204.672 350.625 204.713 350.597 204.742 350.558C204.772 350.52 204.789 350.473 204.792 350.424C204.794 350.376 204.782 350.327 204.757 350.286C204.731 350.244 204.694 350.212 204.649 350.192Z" fill="white"/>
<path d="M223.082 364.961C224.114 365.377 223.834 368.857 223.082 369.121C222.33 369.385 159.082 368.129 158.05 367.873C157.018 367.617 157.434 363.769 158.69 363.585C159.946 363.401 223.082 364.961 223.082 364.961Z" fill="#BA68C8"/>
<path d="M168.097 352.442C163.929 350.274 160.553 356.754 164.729 358.922C168.905 361.09 172.273 354.61 168.097 352.442Z" fill="white"/>
<path d="M163.496 144.802C163.344 145.498 154.872 178.994 153.816 179.618C152.616 180.33 184.6 223.362 188.392 244.49C190.792 258.002 196.392 336.762 196.392 336.762H155.608C155.608 336.762 151.608 269.874 150.28 247.834C149.76 239.282 117.68 199.746 114.632 173.386C113.672 165.082 119.64 144.77 119.64 144.77L163.496 144.802Z" fill="#455A64"/>
<path d="M154.576 304.937C154.096 293.857 153.656 282.753 152.848 271.689C152.392 265.417 151.496 259.345 150.872 253.097C150.872 252.769 150.576 252.689 150.584 253.025C150.872 264.153 151.792 275.161 152.384 286.281C152.976 297.401 153.544 299.993 154.176 311.081C154.528 317.353 154.84 323.625 155.328 329.889C155.333 329.905 155.344 329.919 155.357 329.929C155.371 329.939 155.387 329.944 155.404 329.944C155.421 329.944 155.437 329.939 155.451 329.929C155.465 329.919 155.475 329.905 155.48 329.889C155.504 318.753 155.064 316.057 154.576 304.937Z" fill="#263238"/>
<path d="M188.433 245.015C188.084 242.089 187.517 239.193 186.737 236.351C185.896 233.597 184.79 230.931 183.433 228.391C180.657 223.063 177.497 217.911 174.449 212.735C171.401 207.559 168.225 202.271 165.009 197.103C163.201 194.202 161.385 191.303 159.561 188.407C157.705 185.487 155.745 182.623 153.833 179.743C153.818 179.719 153.794 179.701 153.766 179.694C153.738 179.688 153.709 179.692 153.685 179.707C153.66 179.722 153.643 179.746 153.636 179.774C153.629 179.801 153.634 179.831 153.649 179.855C156.769 185.087 159.857 190.327 162.977 195.559C166.097 200.791 169.169 206.039 172.241 211.287C175.313 216.535 178.297 221.623 181.193 226.871C182.618 229.363 183.846 231.963 184.865 234.647C185.812 237.428 186.5 240.291 186.921 243.199C188.009 249.975 188.897 256.799 190.257 263.511C190.262 263.527 190.272 263.541 190.286 263.551C190.299 263.561 190.316 263.566 190.333 263.566C190.349 263.566 190.366 263.561 190.379 263.551C190.393 263.541 190.403 263.527 190.409 263.511C189.985 257.335 189.249 251.151 188.433 245.015Z" fill="#263238"/>
<path d="M192.801 329.767C190.473 329.463 172.705 328.847 157.841 329.487C157.745 329.487 157.753 329.631 157.841 329.639C162.681 330.063 190.049 330.255 192.777 329.935C192.849 329.927 192.881 329.783 192.801 329.767Z" fill="#263238"/>
<path d="M159.137 177.327C154.981 178.841 150.966 180.715 147.137 182.927C147.104 182.942 147.078 182.969 147.065 183.003C147.053 183.037 147.054 183.074 147.069 183.107C147.084 183.14 147.111 183.166 147.145 183.178C147.178 183.191 147.216 183.19 147.249 183.175C151.297 181.431 155.433 179.767 159.385 177.807C159.448 177.774 159.496 177.717 159.518 177.649C159.54 177.581 159.534 177.507 159.501 177.443C159.468 177.379 159.411 177.331 159.343 177.31C159.274 177.288 159.2 177.294 159.137 177.327Z" fill="#263238"/>
<path d="M160.361 149.599C160.361 149.463 160.105 149.431 160.105 149.599C160.105 154.119 159.879 158.637 159.425 163.135C159.233 165.223 157.553 176.735 153.937 175.935C153.329 175.791 153.025 175.199 152.929 174.279C152.939 173.084 153.1 171.896 153.409 170.743C153.809 168.343 154.129 165.943 154.337 163.471C154.761 158.929 154.713 154.355 154.193 149.823C154.186 149.797 154.171 149.774 154.15 149.758C154.129 149.742 154.103 149.733 154.077 149.733C154.05 149.733 154.024 149.742 154.003 149.758C153.982 149.774 153.967 149.797 153.961 149.823C154.065 156.119 153.696 162.414 152.857 168.655C152.401 171.655 150.889 176.175 154.033 176.655C157.177 177.135 159.297 169.559 159.681 167.487C160.681 161.579 160.91 155.566 160.361 149.599Z" fill="#263238"/>
<path d="M154.033 176.183C153.712 176.964 153.445 177.766 153.233 178.583C153.003 179.211 152.889 179.875 152.897 180.543C152.901 180.57 152.913 180.596 152.932 180.616C152.95 180.636 152.975 180.651 153.002 180.657C153.028 180.663 153.057 180.66 153.082 180.65C153.108 180.64 153.13 180.622 153.145 180.599C153.523 180.009 153.806 179.364 153.985 178.687C154.265 177.943 154.553 177.215 154.785 176.463C154.822 176.363 154.818 176.253 154.774 176.156C154.729 176.059 154.649 175.984 154.549 175.947C154.449 175.91 154.339 175.914 154.242 175.958C154.145 176.002 154.07 176.083 154.033 176.183Z" fill="#263238"/>
<path d="M155.738 258.584C155.354 252.888 155.378 246.88 152.954 241.6C151.666 239.027 150.185 236.556 148.522 234.208C146.868 231.68 145.236 229.139 143.626 226.584C137.226 216.368 131.05 205.944 125.426 195.264C122.714 190.12 120.218 184.808 118.858 179.128C117.531 173.151 117.279 166.985 118.114 160.92C118.306 159.408 118.514 157.904 118.762 156.4C118.762 156.38 118.756 156.36 118.744 156.343C118.732 156.327 118.714 156.316 118.694 156.311C118.674 156.306 118.653 156.309 118.635 156.318C118.617 156.326 118.602 156.342 118.594 156.36C117.277 162.128 116.827 168.06 117.258 173.96C117.873 179.601 119.462 185.093 121.954 190.192C124.434 195.56 127.386 200.728 130.298 205.872C133.3 211.205 136.391 216.461 139.57 221.64C142.77 226.808 146.066 231.872 149.37 236.96C151.055 239.36 152.368 242 153.266 244.792C153.993 247.705 154.411 250.687 154.514 253.688C155.314 266.28 158.514 308.144 159.65 320.672C159.786 322.272 159.93 323.872 160.082 325.472C160.077 325.489 160.076 325.506 160.08 325.523C160.083 325.54 160.09 325.556 160.101 325.57C160.111 325.583 160.125 325.594 160.14 325.602C160.155 325.61 160.172 325.614 160.19 325.614C160.207 325.614 160.224 325.61 160.239 325.602C160.255 325.594 160.268 325.583 160.279 325.57C160.289 325.556 160.296 325.54 160.3 325.523C160.303 325.506 160.302 325.489 160.298 325.472C159.818 312.896 156.562 271.136 155.738 258.584Z" fill="#263238"/>
<path d="M136.16 155.84C136.16 155.752 136.016 155.784 136.016 155.84C135.896 159.336 136.016 162.952 134.648 166.24C133.416 169.272 130.936 171.4 128.16 172.992C126.545 173.898 124.882 174.712 123.176 175.432C123.056 175.488 123.104 175.68 123.24 175.64C126.44 174.616 129.744 173.504 132.424 171.36C135.288 169.056 136.544 165.72 136.68 162.12C136.729 160.014 136.555 157.909 136.16 155.84Z" fill="#263238"/>
<path d="M153.913 98.8563C158.489 112.904 170.849 136.832 175.265 139.72C179.177 142.272 197.585 139.424 205.665 137.48C208.673 136.752 201.905 113.824 198.697 114.664C194.849 115.672 183.385 118.256 182.553 117.616C181.721 116.976 170.161 102.736 161.969 94.3523C154.513 86.7603 152.185 93.5443 153.913 98.8563Z" fill="#F7A9A0"/>
<path d="M203.897 137.655C205.441 137.463 218.505 136.855 224.497 133.599C227.697 131.863 235.865 126.119 235.049 124.055C234.305 122.175 231.681 123.199 231.681 123.199C231.681 123.199 235.289 120.583 234.233 117.975C233.177 115.367 228.817 117.327 228.817 117.327C228.817 117.327 232.329 114.367 231.089 111.847C229.849 109.327 225.801 112.023 225.801 112.023C225.801 112.023 229.137 109.471 227.241 107.823C224.953 105.839 219.329 111.247 215.529 112.511C214.665 112.799 197.641 117.103 197.641 117.103L203.897 137.655Z" fill="#F7A9A0"/>
<path d="M225.657 111.951C221.513 115.911 219.009 116.927 213.473 118.047C213.369 118.047 213.377 118.239 213.473 118.223C218.993 117.623 222.313 116.799 225.841 112.143C226.033 111.911 225.849 111.759 225.657 111.951Z" fill="#263238"/>
<path d="M228.681 117.233C224.017 120.977 221.313 122.097 215.601 123.697C215.521 123.697 215.553 123.865 215.641 123.849C221.369 122.745 224.665 121.849 228.833 117.497C229.025 117.305 228.897 117.065 228.681 117.233Z" fill="#263238"/>
<path d="M231.401 123.265C226.601 126.561 223.713 127.929 217.969 128.769C217.942 128.769 217.915 128.78 217.896 128.8C217.876 128.819 217.865 128.846 217.865 128.873C217.865 128.901 217.876 128.927 217.896 128.947C217.915 128.966 217.942 128.977 217.969 128.977C223.913 128.689 227.569 127.017 231.465 123.425C231.753 123.201 231.697 123.065 231.401 123.265Z" fill="#263238"/>
<path d="M193.176 117.842C193.176 117.842 197.936 112.458 200.544 110.554C203.152 108.65 215.504 105.13 216.416 107.754C217.592 111.146 210.864 114.578 207.352 115.826C207.352 115.826 210.08 123.666 205.752 127.17C201.424 130.674 193.176 117.842 193.176 117.842Z" fill="#F7A9A0"/>
<path d="M216.44 108.801C215.28 112.665 210.56 114.009 207.24 115.473C207.191 115.494 207.148 115.526 207.113 115.567C207.079 115.608 207.054 115.657 207.042 115.709C207.029 115.761 207.029 115.815 207.042 115.867C207.054 115.919 207.078 115.968 207.112 116.009C208.04 119.369 208.36 124.377 206.008 127.209C205.944 127.289 206.048 127.401 206.128 127.329C209.064 124.641 209.144 119.689 207.896 116.073C211.328 114.625 216 113.065 216.472 108.817C216.48 108.801 216.448 108.801 216.44 108.801Z" fill="#263238"/>
<path d="M203.888 141.599L197.856 114.127L182.928 116.839C177.04 110.095 165.272 96.6148 160.528 92.5668C154.928 87.8148 151.264 91.3828 153.328 98.5828C157.992 115.039 171.632 139.199 175.2 141.479C180.376 144.799 203.888 141.599 203.888 141.599Z" fill="#BA68C8"/>
<path opacity="0.1" d="M182.577 125.202C183.316 125.363 184.069 125.451 184.825 125.466C186.425 125.682 187.129 128.042 185.673 128.938C184.908 129.409 184.044 129.694 183.149 129.771C182.254 129.847 181.354 129.712 180.521 129.378C178.921 128.754 177.569 127.202 177.913 125.378C177.972 125.038 178.119 124.719 178.338 124.453C178.558 124.186 178.842 123.981 179.164 123.857C179.487 123.733 179.835 123.694 180.177 123.745C180.518 123.795 180.841 123.934 181.113 124.146C181.556 124.556 182.048 124.911 182.577 125.202ZM178.449 118.666C177.873 121.386 182.081 123.722 184.233 122.274C184.406 122.143 184.548 121.974 184.647 121.78C184.747 121.587 184.801 121.373 184.806 121.156C184.812 120.938 184.768 120.722 184.678 120.524C184.589 120.325 184.456 120.15 184.289 120.01C183.657 119.498 183.129 119.418 182.569 118.954C182.373 118.801 182.201 118.621 182.057 118.418C181.74 117.981 181.333 117.615 180.865 117.346C180.621 117.242 180.357 117.194 180.092 117.207C179.828 117.22 179.569 117.293 179.337 117.42C179.104 117.547 178.903 117.725 178.749 117.941C178.596 118.157 178.493 118.405 178.449 118.666ZM171.737 118.81C170.873 119.938 171.521 121.634 172.281 122.658C172.623 123.168 173.094 123.578 173.647 123.847C174.199 124.115 174.813 124.232 175.425 124.186C175.648 124.155 175.857 124.059 176.028 123.912C176.198 123.764 176.322 123.57 176.384 123.354C176.447 123.137 176.445 122.907 176.38 122.692C176.315 122.476 176.189 122.284 176.017 122.138C175.536 121.772 175.151 121.294 174.897 120.746C174.521 119.898 174.273 118.802 173.297 118.434C173.03 118.324 172.736 118.302 172.456 118.369C172.176 118.437 171.924 118.591 171.737 118.81ZM189.457 136.602C188.329 138.882 191.761 141.474 193.841 141.026C194.537 140.874 195.209 139.962 194.593 139.306C194.097 138.778 193.505 138.362 193.041 137.802C192.473 137.122 192.161 136.25 191.273 135.906C190.939 135.766 190.564 135.76 190.225 135.89C189.887 136.02 189.612 136.275 189.457 136.602ZM157.233 108.642C157.036 108.267 156.764 107.938 156.433 107.674C156.881 108.821 157.353 109.97 157.849 111.122C157.876 110.254 157.662 109.396 157.233 108.642ZM161.689 106.242C161.532 104.266 160.76 102.388 159.481 100.874C158.521 99.634 156.857 97.674 155.097 98.098C154.91 98.1565 154.747 98.2736 154.631 98.4321C154.516 98.5906 154.455 98.782 154.457 98.978C154.345 100.33 155.897 101.778 156.569 102.858C157.369 104.218 158.001 105.722 158.865 107.074C159.046 107.352 159.311 107.564 159.622 107.679C159.933 107.793 160.273 107.804 160.591 107.709C160.909 107.615 161.187 107.42 161.385 107.154C161.583 106.888 161.69 106.565 161.689 106.234V106.242ZM161.169 114.842C161.482 114.826 161.781 114.71 162.023 114.511C162.265 114.313 162.436 114.042 162.513 113.738C162.637 113.117 162.596 112.474 162.393 111.874C162.273 111.303 161.996 110.776 161.593 110.354C161.449 110.22 161.272 110.127 161.08 110.082C160.889 110.037 160.689 110.043 160.5 110.098C160.311 110.154 160.14 110.258 160.004 110.399C159.867 110.541 159.77 110.715 159.721 110.906C159.657 111.373 159.657 111.847 159.721 112.314C159.721 112.514 159.721 112.714 159.721 112.922C159.717 113.223 159.749 113.524 159.817 113.818C159.903 114.11 160.081 114.367 160.325 114.55C160.568 114.733 160.864 114.833 161.169 114.834V114.842Z" fill="#030402"/>
<path d="M198.665 139.2C197.977 137.6 196.265 130.496 195.889 128.728C195.513 126.96 194.121 119.808 193.713 117.992C193.713 117.888 193.825 117.832 193.849 117.928C194.281 119.72 196.209 126.776 196.633 128.536C197.057 130.296 198.649 137.392 198.761 139.176C198.762 139.183 198.763 139.189 198.762 139.196C198.761 139.202 198.759 139.208 198.755 139.214C198.749 139.225 198.738 139.233 198.725 139.236C198.712 139.24 198.699 139.238 198.687 139.231C198.676 139.224 198.668 139.213 198.665 139.2Z" fill="#263238"/>
<path opacity="0.1" d="M184.801 142.976C180.601 142.976 176.913 142.576 175.201 141.48C171.609 139.16 157.969 115.08 153.273 98.5921C152.089 94.4641 152.801 91.5201 154.673 90.6641L184.801 142.976Z" fill="black"/>
<path d="M117.104 148.568C117.208 148.72 167.128 155.12 167.664 154.656C167.946 153.266 168.146 151.861 168.264 150.448C168.264 150.448 163.688 96.096 161.32 92.904C159.248 90.12 152.96 88.104 148.68 89.92C139.696 93.728 118.184 142.288 118.416 144.32C118.4 144.296 116.976 148.376 117.104 148.568Z" fill="#BA68C8"/>
<path opacity="0.1" d="M135.105 141.951C135.875 142.324 136.678 142.624 137.505 142.847C139.169 143.511 139.321 146.287 137.505 146.847C136.54 147.153 135.516 147.229 134.516 147.069C133.516 146.91 132.567 146.518 131.745 145.927C130.145 144.807 129.113 142.727 129.977 140.871C130.136 140.517 130.382 140.211 130.694 139.981C131.005 139.751 131.37 139.604 131.754 139.556C132.138 139.508 132.528 139.559 132.887 139.706C133.245 139.852 133.56 140.088 133.801 140.391C134.249 140.911 134.521 141.599 135.105 141.951ZM132.369 133.687C131.001 136.511 134.961 140.199 137.705 139.199C137.935 139.107 138.14 138.963 138.305 138.778C138.47 138.593 138.589 138.373 138.655 138.134C138.72 137.895 138.729 137.644 138.68 137.402C138.632 137.159 138.528 136.93 138.377 136.735C137.833 136.007 137.273 135.775 136.777 135.135C136.606 134.913 136.468 134.668 136.369 134.407C136.132 133.848 135.787 133.342 135.353 132.919C134.401 131.999 132.873 132.647 132.369 133.687ZM127.745 130.679C126.249 131.239 125.865 133.255 125.977 134.679C126 135.37 126.206 136.044 126.574 136.63C126.943 137.216 127.46 137.694 128.073 138.015C128.304 138.118 128.561 138.152 128.811 138.113C129.062 138.074 129.295 137.963 129.484 137.793C129.673 137.624 129.808 137.404 129.875 137.159C129.941 136.915 129.935 136.656 129.857 136.415C129.603 135.775 129.515 135.081 129.601 134.399C129.737 133.375 130.145 132.175 129.465 131.255C129.276 130.989 129.007 130.791 128.698 130.687C128.39 130.584 128.056 130.581 127.745 130.679ZM144.145 140.199C143.766 140.166 143.39 140.28 143.092 140.516C142.795 140.753 142.599 141.094 142.545 141.471C142.504 141.875 142.606 142.281 142.832 142.618C143.058 142.956 143.395 143.203 143.785 143.319C144.331 143.499 144.919 143.499 145.465 143.319C145.744 143.208 145.974 143.001 146.113 142.735C146.274 142.477 146.339 142.171 146.297 141.871C146.253 141.59 146.124 141.33 145.928 141.124C145.733 140.918 145.479 140.777 145.201 140.719C145.151 140.652 145.091 140.593 145.025 140.543C144.771 140.345 144.465 140.226 144.145 140.199ZM131.881 120.895C130.537 122.271 131.081 125.399 132.617 126.455C132.815 126.605 133.048 126.701 133.295 126.733C133.541 126.765 133.792 126.732 134.021 126.638C134.251 126.543 134.452 126.39 134.604 126.194C134.756 125.997 134.855 125.765 134.889 125.519C134.913 125.202 134.913 124.884 134.889 124.567C134.889 124.223 134.841 124.007 134.889 123.767C135.009 123.083 135.033 122.385 134.961 121.695C134.899 121.367 134.745 121.064 134.517 120.82C134.289 120.577 133.997 120.403 133.674 120.319C133.352 120.235 133.012 120.245 132.694 120.347C132.377 120.449 132.095 120.639 131.881 120.895ZM123.201 140.799C121.353 142.991 124.401 146.751 126.793 146.823C127.593 146.823 128.577 146.023 128.081 145.143C127.681 144.439 127.145 143.815 126.793 143.087C126.361 142.191 126.257 141.143 125.377 140.535C125.049 140.293 124.641 140.186 124.237 140.235C123.832 140.285 123.462 140.486 123.201 140.799ZM167.337 140.103C167.036 140.148 166.755 140.281 166.53 140.486C166.305 140.692 166.146 140.959 166.073 141.255C165.817 142.143 165.785 142.935 165.121 143.655C164.402 144.22 163.757 144.873 163.201 145.599C163.108 145.78 163.064 145.982 163.073 146.185C163.081 146.389 163.143 146.586 163.251 146.759C163.359 146.932 163.51 147.073 163.689 147.17C163.868 147.266 164.069 147.315 164.273 147.311C165.67 147.139 166.949 146.441 167.849 145.359C167.689 143.839 167.529 142.055 167.345 140.071L167.337 140.103ZM163.337 133.503C162.889 134.591 162.969 135.823 162.593 136.959C162.263 138 161.87 139.021 161.417 140.015C161.081 140.735 161.753 141.871 162.625 141.487C164.043 140.942 165.203 139.882 165.873 138.519C166.481 137.263 167.153 135.151 166.569 133.815C165.985 132.479 164.001 131.895 163.321 133.471L163.337 133.503ZM158.777 144.407C158.112 145.266 157.262 145.963 156.289 146.447C156.057 146.519 155.843 146.639 155.662 146.8C155.48 146.961 155.335 147.158 155.235 147.38C155.136 147.601 155.084 147.841 155.084 148.083C155.085 148.326 155.137 148.566 155.237 148.787C155.337 149.008 155.482 149.205 155.664 149.366C155.846 149.526 156.061 149.646 156.292 149.718C156.524 149.789 156.769 149.811 157.01 149.78C157.25 149.75 157.482 149.669 157.689 149.543C158.517 149.188 159.257 148.656 159.857 147.984C160.456 147.312 160.902 146.517 161.161 145.655C161.537 144.271 159.665 143.367 158.761 144.375L158.777 144.407ZM151.465 105.207C151.912 105.301 152.378 105.219 152.766 104.977C153.154 104.736 153.433 104.354 153.545 103.911C153.993 102.191 152.457 100.423 151.241 99.3506C150.025 98.2786 148.313 97.3026 146.609 97.8546C146.382 97.9281 146.178 98.0584 146.015 98.233C145.853 98.4076 145.738 98.6208 145.681 98.8524C145.624 99.084 145.627 99.3263 145.69 99.5563C145.753 99.7863 145.874 99.9963 146.041 100.167C146.785 101.095 147.817 101.767 148.609 102.679C149.401 103.591 150.057 104.943 151.449 105.175L151.465 105.207ZM157.601 111.999C158.273 111.031 157.753 109.599 157.273 108.679C157.017 108.171 156.62 107.749 156.129 107.463C155.799 107.251 155.398 107.179 155.014 107.261C154.631 107.344 154.295 107.574 154.081 107.903C153.863 108.358 153.828 108.879 153.985 109.359C154.052 109.61 154.143 109.853 154.257 110.087V110.159V110.223C154.4 110.987 154.724 111.705 155.201 112.319C155.366 112.485 155.568 112.611 155.79 112.686C156.012 112.762 156.248 112.785 156.48 112.754C156.713 112.723 156.935 112.639 157.129 112.508C157.324 112.377 157.485 112.202 157.601 111.999ZM161.729 106.271C161.572 104.294 160.8 102.417 159.521 100.903C158.561 99.6626 156.897 97.7026 155.137 98.1266C154.95 98.1851 154.787 98.3022 154.671 98.4607C154.556 98.6192 154.495 98.8106 154.497 99.0066C154.385 100.359 155.937 101.807 156.609 102.887C157.409 104.247 158.041 105.751 158.905 107.103C159.093 107.365 159.36 107.562 159.666 107.664C159.973 107.767 160.304 107.77 160.612 107.673C160.921 107.577 161.191 107.385 161.384 107.126C161.577 106.867 161.684 106.554 161.689 106.231L161.729 106.271ZM155.689 119.967C155.982 120.031 156.284 120.031 156.577 119.967C157.02 119.83 157.395 119.53 157.625 119.127C157.84 118.698 157.947 118.222 157.937 117.743C157.923 117.288 157.799 116.844 157.577 116.447L157.313 116.119L156.961 115.863C156.741 115.749 156.498 115.687 156.25 115.68C156.003 115.673 155.757 115.722 155.531 115.824C155.305 115.925 155.104 116.076 154.945 116.266C154.785 116.456 154.67 116.679 154.609 116.919C154.476 117.385 154.382 117.861 154.329 118.343L154.401 118.783C154.457 119.003 154.567 119.207 154.721 119.375C154.963 119.654 155.288 119.848 155.649 119.927L155.689 119.967ZM161.209 114.871C161.522 114.854 161.821 114.739 162.063 114.54C162.305 114.341 162.476 114.07 162.553 113.767C162.677 113.146 162.636 112.503 162.433 111.903C162.313 111.331 162.036 110.805 161.633 110.383C161.489 110.249 161.312 110.155 161.12 110.11C160.929 110.065 160.729 110.071 160.54 110.127C160.351 110.182 160.18 110.286 160.044 110.428C159.907 110.569 159.81 110.744 159.761 110.935C159.697 111.402 159.697 111.875 159.761 112.343C159.761 112.543 159.761 112.743 159.761 112.951C159.757 113.252 159.789 113.553 159.857 113.847C159.947 114.126 160.121 114.372 160.356 114.548C160.591 114.724 160.875 114.823 161.169 114.831L161.209 114.871Z" fill="#030402"/>
<path d="M158.4 101.423C155.352 101.143 151.449 94.6314 150.705 90.4954C150.657 90.2074 151.872 87.7994 153.208 84.8074C154.008 82.9914 154.872 80.9434 155.512 79.0234L166.584 85.9914C165.091 88.1649 163.868 90.5131 162.944 92.9834C162.862 93.2442 162.803 93.512 162.769 93.7834C162.771 93.8287 162.771 93.8742 162.769 93.9194C162.489 95.5194 161.352 101.695 158.4 101.423Z" fill="#F7A9A0"/>
<path d="M162.769 93.8001C162.771 93.8454 162.771 93.8908 162.769 93.9361C162.342 93.8526 161.922 93.7376 161.513 93.5921C154.585 91.0961 155.809 82.0081 156.297 79.4961L159.057 81.2401L166.617 86.0401C165.123 88.2127 163.904 90.5611 162.985 93.0321C162.89 93.281 162.817 93.538 162.769 93.8001Z" fill="#263238"/>
<path d="M156.672 66.1992C154.384 70.3192 153.984 83.5512 156.52 87.0632C160.184 92.1512 167.544 94.1352 172.208 89.4632C176.728 84.8872 176.936 67.6312 173.992 64.3032C169.64 59.3592 160.048 60.1112 156.672 66.1992Z" fill="#F7A9A0"/>
<path d="M167.296 76.8945C167.296 76.8945 167.224 76.8945 167.224 76.9745C167.224 77.8865 167.064 78.9265 166.232 79.1985V79.2545C167.248 79.1425 167.44 77.7585 167.296 76.8945Z" fill="#263238"/>
<path d="M166.521 75.9204C165.057 75.7604 164.841 78.6884 166.193 78.8404C167.545 78.9924 167.745 76.0564 166.521 75.9204Z" fill="#263238"/>
<path d="M172.544 77.207C172.544 77.207 172.608 77.255 172.608 77.295C172.504 78.199 172.544 79.255 173.336 79.615C173.336 79.615 173.336 79.679 173.336 79.671C172.336 79.447 172.304 78.047 172.544 77.207Z" fill="#263238"/>
<path d="M173.433 76.3281C174.897 76.3281 174.777 79.2641 173.433 79.2641C172.089 79.2641 172.201 76.3201 173.433 76.3281Z" fill="#263238"/>
<path d="M167.705 75.3279C167.297 75.4159 166.905 75.4239 166.505 75.4719C166.091 75.5803 165.652 75.5494 165.257 75.3839C165.142 75.3081 165.055 75.1964 165.011 75.0662C164.966 74.9359 164.965 74.7945 165.009 74.6639C165.14 74.4253 165.332 74.2257 165.565 74.0852C165.799 73.9447 166.065 73.8684 166.337 73.8639C166.89 73.7577 167.462 73.8664 167.937 74.1679C168.036 74.2422 168.112 74.343 168.156 74.4585C168.2 74.5741 168.21 74.6997 168.186 74.821C168.162 74.9422 168.104 75.0541 168.019 75.1438C167.934 75.2336 167.825 75.2974 167.705 75.3279Z" fill="#263238"/>
<path d="M174.745 73.5996C174.357 73.4906 173.975 73.3598 173.601 73.2076C173.18 73.1283 172.798 72.9116 172.513 72.5916C172.442 72.4744 172.412 72.3367 172.428 72.2005C172.444 72.0643 172.505 71.9373 172.601 71.8396C172.82 71.6726 173.08 71.568 173.353 71.537C173.626 71.506 173.903 71.5498 174.153 71.6636C174.694 71.8115 175.161 72.1533 175.465 72.6236C175.528 72.7352 175.558 72.8628 175.55 72.9908C175.543 73.1189 175.498 73.242 175.422 73.3452C175.346 73.4485 175.241 73.5275 175.121 73.5726C175.001 73.6177 174.87 73.6271 174.745 73.5996Z" fill="#263238"/>
<path d="M166.633 84.1111C167.811 83.829 169.039 83.829 170.217 84.1111C170.321 84.1111 170.425 83.9031 170.449 83.8071L170.513 81.8871C170.761 82.0311 172.009 82.6871 172.009 82.3351C172.139 79.2145 171.949 76.0888 171.441 73.0071C171.435 72.9892 171.424 72.9735 171.409 72.9624C171.394 72.9513 171.376 72.9453 171.357 72.9453C171.338 72.9453 171.32 72.9513 171.305 72.9624C171.29 72.9735 171.278 72.9892 171.273 73.0071C171.145 75.8951 171.513 78.7751 171.425 81.6791C170.983 81.4344 170.509 81.254 170.017 81.1431C169.913 81.1431 170.017 83.1831 170.017 83.4871C168.916 83.1078 167.71 83.1738 166.657 83.6711C166.241 83.9351 166.073 84.2871 166.633 84.1111Z" fill="#263238"/>
<path d="M164.265 86.0152C164.465 86.2392 164.665 86.5432 164.985 86.5912C165.321 86.6073 165.657 86.5499 165.969 86.4232C165.969 86.4232 166.025 86.4232 165.969 86.4712C165.831 86.641 165.649 86.7696 165.443 86.843C165.237 86.9164 165.015 86.9317 164.801 86.8872C164.626 86.8313 164.471 86.726 164.354 86.5841C164.238 86.4422 164.165 86.2696 164.145 86.0872C164.161 85.9992 164.233 85.9832 164.265 86.0152Z" fill="#263238"/>
<path opacity="0.2" d="M160.537 62C160.417 64.056 159.929 70.432 158.937 71.728C157.945 73.024 155.849 76.04 154.785 76.528C154.929 72.28 155.585 68.24 156.681 66.128C157.58 64.4358 158.91 63.0116 160.537 62Z" fill="#263238"/>
<path d="M171.937 68.2322C171.378 68.8016 170.682 69.2182 169.916 69.4423C169.15 69.6664 168.339 69.6904 167.561 69.5122C166.765 69.3351 166.028 68.9556 165.421 68.4105C164.814 67.8654 164.359 67.173 164.097 66.4002C164.097 66.3522 164.009 66.4002 164.025 66.4002C164.229 67.2346 164.657 67.9972 165.263 68.6051C165.87 69.213 166.632 69.643 167.465 69.8482C168.298 70.0071 169.158 69.9428 169.957 69.6618C170.757 69.3807 171.467 68.893 172.017 68.2482C172.065 68.2562 172.001 68.1842 171.937 68.2322Z" fill="#263238"/>
<path d="M167.92 56.3761C166.69 56.293 165.46 56.5205 164.341 57.0378C163.223 57.555 162.253 58.3454 161.52 59.3361C160.895 60.3444 160.63 61.5342 160.768 62.7121H160.872C160.887 61.6785 161.181 60.6682 161.723 59.7881C162.266 58.9079 163.036 58.1907 163.952 57.7121C164.953 57.1514 166.071 56.8301 167.217 56.7732C168.364 56.7163 169.508 56.9254 170.56 57.3841C171.595 57.8108 172.445 58.5902 172.96 59.5841C173.008 59.6881 173.216 59.6401 173.176 59.5361C172.52 57.7921 170.4 56.4961 167.92 56.3761Z" fill="#263238"/>
<path d="M183.2 63.3538C182.852 61.9994 182.036 60.812 180.896 60.0018C179.296 58.8578 177.424 58.8738 175.552 58.9378C175.496 58.9378 175.504 59.0178 175.552 59.0098C177.144 58.8436 178.749 59.1409 180.176 59.8658C181.337 60.5627 182.222 61.6395 182.68 62.9138C183.116 64.2209 183.065 65.6414 182.538 66.9142C182.01 68.187 181.041 69.2266 179.808 69.8418C179.09 70.1791 178.311 70.3658 177.519 70.3906C176.726 70.4154 175.937 70.2776 175.2 69.9858C175.144 69.9858 175.096 70.0418 175.152 70.0738C176.149 70.5144 177.25 70.6674 178.33 70.5153C179.41 70.3633 180.426 69.9123 181.263 69.2133C182.1 68.5144 182.725 67.5953 183.067 66.5599C183.41 65.5244 183.456 64.414 183.2 63.3538Z" fill="#263238"/>
<path d="M155.873 68.8003C155.873 68.8003 153.665 63.7683 156.025 61.1283C157.361 59.6403 161.377 60.1523 161.377 60.1523C162.577 58.6295 164.332 57.6453 166.257 57.4163C169.689 56.8803 173.601 59.2003 173.601 59.2003C173.601 59.2003 176.945 57.6003 179.817 59.5443C183.817 62.2563 182.817 68.6003 178.449 70.3283C175.377 71.5523 171.553 68.6243 171.553 68.6243C171.169 68.6243 167.025 70.7363 164.297 66.9763C164.297 66.9763 161.705 68.9523 159.633 67.2723C159.239 67.8823 158.667 68.3561 157.994 68.6295C157.322 68.9029 156.581 68.9625 155.873 68.8003Z" fill="#263238"/>
<path d="M157.177 77.1602C157.177 77.1602 155.081 72.4642 153.009 73.1602C150.937 73.8562 151.945 80.2402 153.993 81.4882C154.243 81.6618 154.525 81.7835 154.822 81.8461C155.12 81.9088 155.427 81.9111 155.725 81.8529C156.023 81.7947 156.307 81.6772 156.559 81.5074C156.811 81.3376 157.027 81.1189 157.193 80.8642L157.177 77.1602Z" fill="#F7A9A0"/>
<path d="M153.346 74.9688V75.0247C154.77 75.9447 155.306 77.5368 155.586 79.1288C155.525 78.9572 155.429 78.8008 155.302 78.6703C155.176 78.5398 155.022 78.4383 154.853 78.3729C154.683 78.3075 154.501 78.2797 154.32 78.2914C154.138 78.3031 153.962 78.3541 153.802 78.4408C153.754 78.4408 153.802 78.5288 153.802 78.5288C154.093 78.4951 154.388 78.5543 154.643 78.6979C154.899 78.8416 155.103 79.0624 155.226 79.3288C155.443 79.7615 155.609 80.2178 155.722 80.6888C155.722 80.8408 156.026 80.8168 156.01 80.6888C156.418 78.6248 155.418 75.5767 153.346 74.9688Z" fill="#263238"/>
<path d="M268.064 86.4813L181.934 112.863L197.463 163.562L283.593 137.18L268.064 86.4813Z" fill="#BA68C8"/>
<path opacity="0.2" d="M268.064 86.4813L181.934 112.863L197.463 163.562L283.593 137.18L268.064 86.4813Z" fill="black"/>
<path opacity="0.2" d="M268.06 86.4818L239.115 95.3477L254.644 146.047L283.589 137.181L268.06 86.4818Z" fill="black"/>
<path d="M266.674 89.0625C265.698 93.5532 264.748 98.0438 263.826 102.534L261.098 116.039L258.458 129.598C257.594 134.111 256.751 138.63 255.93 143.158C256.906 138.673 257.855 134.182 258.778 129.687L261.506 116.182L264.146 102.655C265.01 98.1212 265.852 93.5905 266.674 89.0625Z" fill="#BA68C8"/>
<path d="M280.889 135.48C277.689 132.194 274.46 128.922 271.201 125.664L261.441 115.936L251.617 106.28C248.332 103.08 245.03 99.8797 241.713 96.6797C244.913 99.9704 248.142 103.242 251.401 106.496L261.161 116.224L270.985 125.88C274.276 129.112 277.577 132.312 280.889 135.48Z" fill="#BA68C8"/>
<path d="M198.475 119.395L198.949 119.25L196.908 112.588L196.434 112.733L198.475 119.395Z" fill="#263238"/>
<path d="M197.348 119.735L197.822 119.59L195.782 112.927L195.307 113.073L197.348 119.735Z" fill="#263238"/>
<path d="M196.211 120.098L196.686 119.953L194.645 113.291L194.171 113.436L196.211 120.098Z" fill="#263238"/>
<path d="M195.086 120.423L195.561 120.277L193.521 113.615L193.047 113.76L195.086 120.423Z" fill="#263238"/>
<path d="M193.952 120.778L194.426 120.633L192.385 113.97L191.911 114.116L193.952 120.778Z" fill="#263238"/>
<path d="M192.823 121.114L193.297 120.969L191.256 114.306L190.782 114.452L192.823 121.114Z" fill="#263238"/>
<path d="M191.68 121.489L192.154 121.344L190.114 114.681L189.639 114.827L191.68 121.489Z" fill="#263238"/>
<path d="M190.549 121.825L191.023 121.68L188.982 115.018L188.507 115.163L190.549 121.825Z" fill="#263238"/>
<path d="M189.409 122.184L189.883 122.039L187.842 115.377L187.368 115.522L189.409 122.184Z" fill="#263238"/>
<path d="M201.704 111.67L199.736 111.718L204 110.398L202.336 111.47L203.088 113.918C204.44 113.686 205.352 114.814 206.04 117.054L201.776 118.398C201.088 116.166 201.208 114.718 202.456 114.15L201.704 111.67Z" fill="#263238"/>
<path d="M205.992 113.375L207.104 113.031L206.104 109.767L208.952 108.895L209.952 112.159L211.072 111.815L209.568 115.991L205.992 113.375Z" fill="#263238"/>
<path opacity="0.1" d="M181.938 112.864L183.209 117.024L242.745 107.2L239.114 95.3516L181.938 112.864Z" fill="black"/>
<path d="M294.753 142.928L265.801 151.792L254.641 146.048L283.593 137.176L294.753 142.928Z" fill="#BA68C8"/>
<path opacity="0.2" d="M294.753 142.928L265.801 151.792L254.641 146.048L283.593 137.176L294.753 142.928Z" fill="black"/>
<path d="M191.434 174.575L220.386 165.703L226.41 154.695L197.458 163.559L191.434 174.575Z" fill="#BA68C8"/>
<path opacity="0.1" d="M191.434 174.575L220.386 165.703L226.41 154.695L197.458 163.559L191.434 174.575Z" fill="black"/>
<path d="M143.785 105.042C148.017 119.194 159.785 143.442 164.153 146.402C168.001 149.05 186.473 146.642 194.553 144.89C197.577 144.242 191.353 121.154 188.153 121.914C184.281 122.834 172.753 125.114 171.937 124.482C171.121 123.85 159.937 109.282 151.937 100.738C144.673 92.9619 142.185 99.6899 143.785 105.042Z" fill="#F7A9A0"/>
<path d="M186.488 123.791C186.488 123.791 192.608 116.895 196.944 114.263C201.521 111.643 206.666 110.175 211.936 109.983C217.624 109.759 231.536 113.135 231.256 117.311C231.008 121.095 216.968 116.919 216.968 116.919C216.968 116.919 231.984 118.815 230.848 123.319C229.712 127.823 213.688 122.039 213.688 122.039C213.688 122.039 229.072 124.327 227.2 128.799C225.76 132.167 210.952 127.751 210.952 127.751C210.952 127.751 224.168 129.815 222.832 133.351C221.36 137.247 207.432 134.031 207.432 134.031C202.544 142.415 196.776 144.431 192.512 145.335C191.448 145.519 186.488 123.791 186.488 123.791Z" fill="#F7A9A0"/>
<path d="M211.816 115.93C213.584 116.09 215.384 116.242 217.136 116.554C218.888 116.866 220.624 117.25 222.344 117.73C224.598 118.309 226.777 119.144 228.84 120.218C225.04 118.578 218.784 117.346 217.032 117.018C215.28 116.69 213.544 116.298 211.8 115.986C211.752 116.002 211.768 115.93 211.816 115.93Z" fill="#263238"/>
<path d="M210.561 122.239C212.809 122.535 215.065 122.751 217.305 123.151C219.545 123.551 221.617 124.127 223.817 124.679C223.985 124.719 223.905 124.799 223.737 124.759C221.513 124.295 219.433 124.039 217.209 123.607C214.985 123.175 212.777 122.647 210.545 122.287C210.513 122.287 210.521 122.231 210.561 122.239Z" fill="#263238"/>
<path d="M208.504 127.457C211.973 127.834 215.394 128.569 218.712 129.649C218.88 129.697 218.768 129.785 218.592 129.745C215.216 128.945 212.568 128.305 208.496 127.577C208.432 127.569 208.432 127.449 208.504 127.457Z" fill="#263238"/>
<path d="M192.72 148.983L187.344 121.367L172.36 123.719C166.632 116.839 155.192 103.079 150.52 98.9193C145.04 94.0313 141.288 97.5193 143.168 104.759C147.472 121.311 160.528 145.759 164.064 148.159C169.136 151.599 192.72 148.983 192.72 148.983Z" fill="#BA68C8"/>
<path opacity="0.1" d="M182.576 125.199C183.315 125.36 184.068 125.448 184.824 125.463C186.424 125.679 187.128 128.039 185.672 128.935C184.907 129.406 184.043 129.691 183.148 129.768C182.254 129.844 181.353 129.71 180.52 129.375C178.92 128.751 177.568 127.199 177.912 125.375C177.972 125.035 178.118 124.717 178.337 124.45C178.557 124.183 178.841 123.978 179.163 123.854C179.486 123.73 179.834 123.691 180.176 123.742C180.517 123.793 180.84 123.931 181.112 124.143C181.555 124.553 182.047 124.908 182.576 125.199ZM180.976 122.367C181.478 122.609 182.031 122.727 182.588 122.71C183.145 122.693 183.689 122.543 184.176 122.271C184.355 122.152 184.499 121.986 184.592 121.791L180.976 122.367ZM173.192 123.583C173.829 124.049 174.615 124.262 175.4 124.183C175.671 124.146 175.92 124.015 176.104 123.814C176.288 123.612 176.396 123.352 176.408 123.079L173.192 123.583ZM190.152 135.911C189.835 136.044 189.579 136.289 189.432 136.599C188.76 137.951 189.696 139.407 191.032 140.279L190.152 135.911ZM166.056 141.223C165.8 142.111 165.768 142.903 165.104 143.623C164.389 144.2 163.749 144.863 163.2 145.599C163.107 145.781 163.063 145.983 163.072 146.186C163.08 146.39 163.142 146.587 163.25 146.76C163.358 146.932 163.509 147.074 163.688 147.171C163.867 147.267 164.068 147.316 164.272 147.311C165.666 147.14 166.944 146.451 167.854 145.381C168.764 144.311 169.239 142.939 169.184 141.535C169.139 141.176 168.973 140.842 168.714 140.589C168.455 140.336 168.117 140.178 167.756 140.142C167.396 140.106 167.034 140.193 166.729 140.389C166.424 140.586 166.196 140.88 166.08 141.223H166.056ZM163.296 133.471C162.848 134.559 162.928 135.791 162.552 136.927C162.222 137.969 161.829 138.989 161.376 139.983C161.04 140.703 161.712 141.839 162.584 141.455C164.002 140.911 165.162 139.851 165.832 138.487C166.44 137.231 167.112 135.119 166.528 133.783C165.944 132.447 164 131.895 163.32 133.471H163.296ZM151.424 105.175C151.871 105.27 152.337 105.188 152.725 104.946C153.113 104.705 153.392 104.322 153.504 103.879C153.952 102.159 152.416 100.391 151.2 99.3194C149.984 98.2474 148.272 97.2714 146.568 97.8234C146.341 97.8969 146.137 98.0271 145.974 98.2017C145.812 98.3764 145.697 98.5896 145.64 98.8212C145.583 99.0527 145.586 99.295 145.649 99.525C145.712 99.755 145.833 99.9651 146 100.135C146.744 101.063 147.776 101.735 148.568 102.647C149.36 103.559 150.056 104.943 151.448 105.175H151.424ZM157.6 111.999C158.272 111.031 157.752 109.599 157.272 108.679C157.016 108.172 156.619 107.749 156.128 107.463C155.798 107.252 155.397 107.18 155.013 107.262C154.63 107.344 154.294 107.575 154.08 107.903C153.862 108.358 153.827 108.88 153.984 109.359C154.051 109.61 154.142 109.854 154.256 110.087V110.159V110.223C154.399 110.987 154.723 111.706 155.2 112.319C155.365 112.486 155.567 112.612 155.789 112.687C156.011 112.763 156.247 112.786 156.479 112.755C156.712 112.724 156.934 112.64 157.128 112.509C157.323 112.377 157.484 112.203 157.6 111.999ZM155.688 119.999C155.981 120.063 156.283 120.063 156.576 119.999C157.019 119.863 157.394 119.562 157.624 119.159C157.839 118.73 157.946 118.255 157.936 117.775C157.922 117.321 157.798 116.876 157.576 116.479L157.312 116.151L156.96 115.895C156.74 115.782 156.497 115.719 156.249 115.713C156.002 115.706 155.756 115.755 155.53 115.857C155.304 115.958 155.103 116.109 154.944 116.299C154.784 116.488 154.669 116.711 154.608 116.951C154.475 117.417 154.381 117.894 154.328 118.375L154.4 118.815C154.456 119.036 154.566 119.24 154.72 119.407C154.966 119.675 155.291 119.857 155.648 119.927L155.688 119.999ZM162.4 111.879L160.8 110.079C160.544 110.049 160.286 110.114 160.075 110.261C159.864 110.409 159.715 110.629 159.656 110.879C159.592 111.347 159.592 111.82 159.656 112.287C159.656 112.487 159.656 112.687 159.656 112.895C159.652 113.197 159.684 113.498 159.752 113.791C159.839 114.096 160.026 114.362 160.283 114.548C160.54 114.733 160.851 114.828 161.168 114.815C161.481 114.799 161.78 114.683 162.022 114.485C162.264 114.286 162.435 114.015 162.512 113.711C162.632 113.101 162.594 112.47 162.4 111.879Z" fill="#030402"/>
<path d="M187.553 146.449C186.905 144.809 185.385 137.689 185.025 135.905C184.665 134.121 183.473 126.953 183.113 125.121C183.113 125.025 183.225 124.961 183.249 125.065C183.633 126.865 185.401 133.961 185.777 135.737C186.153 137.513 187.585 144.633 187.649 146.425C187.652 146.438 187.65 146.451 187.644 146.463C187.637 146.474 187.626 146.482 187.613 146.485C187.601 146.488 187.587 146.486 187.576 146.479C187.565 146.473 187.556 146.462 187.553 146.449Z" fill="#263238"/>
<path d="M182.609 149.76C180.153 149.904 177.697 149.96 175.241 149.944C172.776 149.955 170.312 149.813 167.865 149.52C166.61 149.396 165.384 149.072 164.233 148.56C163.197 147.829 162.298 146.922 161.577 145.88C160.126 143.878 158.814 141.78 157.649 139.6C155.249 135.288 153.185 130.8 151.169 126.336C149.153 121.872 147.321 117.28 145.641 112.656C147.681 117.128 149.697 121.608 151.793 126.048C153.889 130.488 156.009 134.912 158.297 139.24C159.439 141.399 160.699 143.493 162.073 145.512C162.714 146.518 163.526 147.403 164.473 148.128C165.563 148.631 166.727 148.958 167.921 149.096C172.793 149.687 177.703 149.909 182.609 149.76Z" fill="#263238"/>
<path d="M147.201 116.559C146.873 116.227 146.575 115.865 146.313 115.479C146.042 115.096 145.834 114.672 145.697 114.223C145.818 114.421 145.949 114.614 146.089 114.799L146.481 115.367C146.745 115.749 146.985 116.147 147.201 116.559Z" fill="#263238"/>
<path d="M159.832 109.145C161.856 111.177 163.672 113.409 165.552 115.545C167.432 117.681 169.232 119.937 171.152 122.065L171.864 122.865C171.992 122.985 172.112 123.121 172.232 123.233C172.352 123.345 172.352 123.337 172.408 123.385C172.408 123.385 172.464 123.385 172.496 123.385C173.104 123.385 173.872 123.249 174.56 123.161L178.816 122.529C181.648 122.113 184.488 121.681 187.328 121.297L187.44 122.001L187.272 121.305H187.312C184.504 121.905 181.712 122.441 178.864 122.961C177.448 123.217 176.032 123.441 174.608 123.657C173.88 123.783 173.146 123.868 172.408 123.913C172.35 123.92 172.29 123.92 172.232 123.913C172.154 123.889 172.08 123.851 172.016 123.801C171.935 123.738 171.858 123.671 171.784 123.601L171.392 123.217C171.136 122.953 170.896 122.689 170.656 122.417C168.776 120.233 166.952 118.025 165.16 115.785L162.48 112.417C161.6 111.369 160.8 110.217 159.832 109.145Z" fill="#263238"/>
<path d="M160.881 109.383C161.182 109.753 161.45 110.149 161.681 110.567C161.906 110.979 162.066 111.425 162.153 111.887C162.057 111.671 161.937 111.479 161.825 111.271L161.497 110.655C161.269 110.242 161.063 109.818 160.881 109.383Z" fill="#263238"/>
<path d="M64.928 318.578C64.6319 311.092 64.736 303.596 65.24 296.122C66.3433 280.717 68.695 265.426 72.272 250.402C74.232 241.938 76.648 233.602 79.168 225.298C79.24 225.05 79.64 225.122 79.576 225.378C71.792 254.69 65.4 284.946 65.84 315.41C65.968 323.938 66.952 332.314 67.76 340.786C67.76 341.018 67.408 341.106 67.36 340.874C65.752 333.602 65.232 325.986 64.928 318.578Z" fill="#BA68C8"/>
<path d="M79.5763 225.336C79.5763 225.336 91.3683 255.272 88.7283 262.304C86.0883 269.336 80.6403 270.84 80.6403 270.84C80.6403 270.84 87.8403 281.144 82.8163 290.84C77.7923 300.536 66.5763 300.04 65.8243 311C65.8243 310.968 65.2003 265.16 79.5763 225.336Z" fill="#BA68C8"/>
<path d="M67.112 292.057C67.0923 292.005 67.0923 291.948 67.112 291.897C68.6672 271.46 72.5071 251.262 78.56 231.681C78.56 231.625 78.672 231.641 78.656 231.681C76.32 240.433 74.256 249.233 72.464 258.081C74.0398 256.585 75.9649 255.507 78.064 254.945C78.064 254.945 78.12 254.945 78.064 255.001C75.8484 255.821 73.8582 257.153 72.256 258.889C71.9146 260.617 71.5813 262.353 71.256 264.097C73.888 261.153 77.544 259.689 81.2 258.297C81.248 258.297 81.28 258.361 81.2 258.377C77.392 259.929 73.592 261.929 71.016 265.209C70.1093 270.174 69.3093 275.158 68.616 280.161C70.5225 278.174 72.9657 276.784 75.648 276.161C75.728 276.161 75.776 276.265 75.648 276.289C72.8796 277.089 70.4033 278.676 68.52 280.857H68.472C68.2373 282.617 68.016 284.379 67.808 286.145C69.3276 284.89 71.0441 283.896 72.888 283.201C72.936 283.201 72.96 283.257 72.888 283.273C71.0822 284.073 69.4284 285.18 68 286.545C68 286.545 68 286.545 67.936 286.545C67.744 288.217 67.544 289.897 67.376 291.577C70.0328 288.368 73.4791 285.906 77.376 284.433C77.3839 284.43 77.3923 284.428 77.4008 284.428C77.4093 284.428 77.4176 284.43 77.4254 284.433C77.4332 284.437 77.4403 284.442 77.4462 284.448C77.4522 284.454 77.4568 284.461 77.46 284.469C77.4631 284.477 77.4647 284.485 77.4646 284.494C77.4645 284.502 77.4627 284.51 77.4594 284.518C77.456 284.526 77.4512 284.533 77.4451 284.539C77.439 284.545 77.4319 284.55 77.424 284.553C73.5748 286.248 70.1932 288.851 67.568 292.137C67.541 292.175 67.5022 292.204 67.4574 292.218C67.4126 292.233 67.3644 292.232 67.32 292.217C67.064 294.793 66.832 297.377 66.648 299.961H66.584C66.712 297.345 66.896 294.697 67.112 292.057Z" fill="#263238"/>
<path d="M76.5835 252.001C78.7184 250.671 81.1588 249.911 83.6715 249.793C83.7275 249.793 83.7355 249.873 83.6715 249.881C81.2445 250.33 78.8879 251.099 76.6635 252.169C76.6425 252.173 76.6208 252.17 76.6017 252.161C76.5827 252.151 76.5673 252.135 76.5582 252.116C76.549 252.097 76.5465 252.075 76.5511 252.054C76.5557 252.033 76.5671 252.015 76.5835 252.001Z" fill="#263238"/>
<path d="M75.1512 283.691C76.7932 282.754 78.5987 282.137 80.4712 281.875C80.5352 281.875 80.5432 281.963 80.4712 281.971C78.6368 282.34 76.8625 282.962 75.1992 283.819C75.1432 283.851 75.0792 283.731 75.1512 283.691Z" fill="#263238"/>
<path d="M33.9284 262.794C38.9145 266.244 43.4931 270.248 47.5764 274.73C51.7986 279.467 55.0591 284.98 57.1764 290.962C61.651 303.429 64.0588 316.543 64.3044 329.786C64.4577 337.121 63.7516 344.448 62.2004 351.618C62.1868 351.668 62.155 351.711 62.1111 351.739C62.0673 351.767 62.0147 351.778 61.9635 351.769C61.9124 351.76 61.8665 351.732 61.8348 351.691C61.8032 351.649 61.788 351.598 61.7924 351.546C63.7247 338.892 63.6599 326.013 61.6004 313.378C59.5684 300.994 56.3924 287.522 48.5204 277.458C44.1924 272.002 38.8484 267.674 33.6004 263.202C33.2884 262.978 33.6404 262.594 33.9284 262.794Z" fill="#BA68C8"/>
<path d="M62.5442 320.872C59.708 316.279 56.3731 312.013 52.6002 308.152C46.6962 302.256 41.7282 298.064 40.9602 294.16C40.1922 290.256 46.8722 287.392 46.8722 287.392C46.8722 287.392 38.7042 288.856 36.4722 285.424C34.2402 281.992 33.1602 262.16 33.1602 262.16C33.1602 262.16 48.0002 272.8 54.9362 287.624C61.8722 302.448 62.5442 320.872 62.5442 320.872Z" fill="#BA68C8"/>
<path d="M38.4641 280.8C39.4417 280.66 40.4316 280.628 41.4161 280.704C41.5361 280.704 41.5281 280.912 41.4161 280.912C40.4401 280.912 39.4641 280.864 38.4801 280.912C38.4001 280.896 38.4001 280.8 38.4641 280.8Z" fill="#263238"/>
<path d="M49.1517 300C50.7221 300.033 52.2742 300.344 53.7357 300.92C53.7357 300.92 53.7357 300.992 53.7357 300.984C52.2237 300.624 50.6957 300.472 49.1677 300.224C49.0157 300.224 49.0237 300 49.1517 300Z" fill="#263238"/>
<path d="M52.3606 293.371C53.0128 293.366 53.6639 293.425 54.3046 293.547C54.3686 293.547 54.3606 293.667 54.3046 293.667C53.655 293.7 53.0038 293.668 52.3606 293.571C52.3389 293.565 52.3197 293.552 52.3061 293.534C52.2925 293.516 52.2852 293.494 52.2852 293.471C52.2852 293.449 52.2925 293.427 52.3061 293.409C52.3197 293.391 52.3389 293.378 52.3606 293.371Z" fill="#263238"/>
<path d="M106.081 283.859C101.25 285.496 96.6208 287.675 92.2809 290.355C87.7871 293.225 83.8893 296.936 80.8009 301.283C74.298 310.339 69.3178 320.397 66.0569 331.059C64.2423 336.959 63.1201 343.051 62.7129 349.211C62.7129 349.257 62.7314 349.302 62.7644 349.335C62.7974 349.368 62.8422 349.387 62.8889 349.387C62.9356 349.387 62.9803 349.368 63.0133 349.335C63.0463 349.302 63.0649 349.257 63.0649 349.211C64.4167 338.538 67.4319 328.142 72.0009 318.403C76.5049 308.851 82.1929 298.683 90.8889 292.363C95.6249 288.915 100.945 286.667 106.249 284.283C106.561 284.155 106.401 283.763 106.081 283.859Z" fill="#BA68C8"/>
<path d="M69.5039 324.24C72.8588 321.176 76.5425 318.493 80.4879 316.24C86.6319 312.832 91.6159 310.584 93.1439 307.608C94.6719 304.632 89.9439 300.76 89.9439 300.76C89.9439 300.76 96.2079 303.832 98.8079 301.56C101.408 299.288 106.864 283.488 106.864 283.488C106.864 283.488 92.3999 288.64 83.3599 299.072C74.3199 309.504 69.5039 324.24 69.5039 324.24Z" fill="#BA68C8"/>
<path d="M81.5117 309.715C82.9316 309.615 84.3573 309.789 85.7117 310.227C85.7117 310.227 85.7117 310.299 85.7117 310.291C84.3276 310.058 82.9301 309.914 81.5277 309.859C81.5086 309.861 81.4895 309.855 81.4745 309.843C81.4595 309.831 81.4498 309.814 81.4477 309.795C81.4456 309.776 81.4511 309.756 81.4631 309.741C81.4751 309.726 81.4926 309.717 81.5117 309.715Z" fill="#263238"/>
<path d="M94.1356 293.152C94.783 293.106 95.4338 293.143 96.0716 293.264C96.0838 293.269 96.0944 293.277 96.1018 293.288C96.1093 293.298 96.1133 293.311 96.1133 293.324C96.1133 293.337 96.1093 293.35 96.1018 293.361C96.0944 293.372 96.0838 293.38 96.0716 293.384C95.4396 293.312 94.8076 293.336 94.1676 293.32C94.1479 293.319 94.1291 293.312 94.1142 293.299C94.0993 293.286 94.0892 293.268 94.0855 293.249C94.0818 293.229 94.0848 293.209 94.0938 293.192C94.1029 293.174 94.1176 293.16 94.1356 293.152Z" fill="#263238"/>
<path d="M50.8398 369.161H83.4958L78.8398 335.041L77.6478 326.297H56.6878L55.4958 335.041L50.8398 369.161Z" fill="#455A64"/>
<path d="M55.4961 335.041H78.8401L77.6481 326.297H56.6881L55.4961 335.041Z" fill="#263238"/>
<path d="M53.6804 330.664H80.6484V323.256H53.6804V330.664Z" fill="#455A64"/>
</svg>
