<svg width="40" height="40" viewBox="0 0 40 40" fill="none" xmlns="http://www.w3.org/2000/svg">
<rect x="0.5" y="0.5" width="39" height="39" rx="19.5" stroke="#C3CAD9"/>
<path d="M15 22V28C15 28.2833 14.904 28.521 14.712 28.713C14.52 28.905 14.2827 29.0007 14 29C13.7173 28.9993 13.48 28.9033 13.288 28.712C13.096 28.5207 13 28.2833 13 28V13C13 12.7167 13.096 12.4793 13.288 12.288C13.48 12.0967 13.7173 12.0007 14 12H21.175C21.4083 12 21.6167 12.075 21.8 12.225C21.9833 12.375 22.1 12.5667 22.15 12.8L22.4 14H27C27.2833 14 27.521 14.096 27.713 14.288C27.905 14.48 28.0007 14.7173 28 15V23C28 23.2833 27.904 23.521 27.712 23.713C27.52 23.905 27.2827 24.0007 27 24H21.825C21.5917 24 21.3833 23.925 21.2 23.775C21.0167 23.625 20.9 23.4333 20.85 23.2L20.6 22H15ZM22.65 22H26V16H21.575C21.3417 16 21.1333 15.925 20.95 15.775C20.7667 15.625 20.65 15.4333 20.6 15.2L20.35 14H15V20H21.425C21.6583 20 21.8667 20.075 22.05 20.225C22.2333 20.375 22.35 20.5667 22.4 20.8L22.65 22Z" fill="#3D465C"/>
</svg>
