<svg width="24" height="19" viewBox="0 0 24 19" fill="none" xmlns="http://www.w3.org/2000/svg">
<path d="M12 2.98828C12.1989 2.98828 12.3897 3.0673 12.5303 3.20795C12.671 3.3486 12.75 3.53937 12.75 3.73828V5.98828C12.75 6.18719 12.671 6.37796 12.5303 6.51861C12.3897 6.65926 12.1989 6.73828 12 6.73828C11.8011 6.73828 11.6103 6.65926 11.4697 6.51861C11.329 6.37796 11.25 6.18719 11.25 5.98828V3.73828C11.25 3.53937 11.329 3.3486 11.4697 3.20795C11.6103 3.0673 11.8011 2.98828 12 2.98828ZM5.598 5.58628C5.73865 5.44568 5.92938 5.36669 6.12825 5.36669C6.32712 5.36669 6.51785 5.44568 6.6585 5.58628L8.031 6.95728C8.10073 7.02701 8.15605 7.1098 8.19379 7.20091C8.23152 7.29202 8.25095 7.38967 8.25095 7.48828C8.25095 7.5869 8.23152 7.68455 8.19379 7.77566C8.15605 7.86677 8.10073 7.94955 8.031 8.01928C7.96127 8.08901 7.87848 8.14433 7.78738 8.18207C7.69627 8.21981 7.59862 8.23923 7.5 8.23923C7.40138 8.23923 7.30373 8.21981 7.21262 8.18207C7.12152 8.14433 7.03873 8.08901 6.969 8.01928L5.598 6.64678C5.4574 6.50614 5.37841 6.3154 5.37841 6.11653C5.37841 5.91766 5.4574 5.72693 5.598 5.58628ZM3 11.9883C3 11.7894 3.07902 11.5986 3.21967 11.458C3.36032 11.3173 3.55109 11.2383 3.75 11.2383H6.129C6.32791 11.2383 6.51868 11.3173 6.65933 11.458C6.79998 11.5986 6.879 11.7894 6.879 11.9883C6.879 12.1872 6.79998 12.378 6.65933 12.5186C6.51868 12.6593 6.32791 12.7383 6.129 12.7383H3.75C3.55109 12.7383 3.36032 12.6593 3.21967 12.5186C3.07902 12.378 3 12.1872 3 11.9883ZM17.25 11.9883C17.25 11.7894 17.329 11.5986 17.4697 11.458C17.6103 11.3173 17.8011 11.2383 18 11.2383H20.25C20.4489 11.2383 20.6397 11.3173 20.7803 11.458C20.921 11.5986 21 11.7894 21 11.9883C21 12.1872 20.921 12.378 20.7803 12.5186C20.6397 12.6593 20.4489 12.7383 20.25 12.7383H18C17.8011 12.7383 17.6103 12.6593 17.4697 12.5186C17.329 12.378 17.25 12.1872 17.25 11.9883ZM18.381 5.61928C18.2769 5.51623 18.138 5.45597 17.9916 5.45041C17.8452 5.44486 17.7021 5.49441 17.5905 5.58928L11.3205 10.9533C11.1744 11.0764 11.0558 11.2287 10.9723 11.4006C10.8888 11.5724 10.8423 11.7598 10.8358 11.9507C10.8293 12.1416 10.863 12.3318 10.9346 12.5089C11.0062 12.686 11.1142 12.8461 11.2515 12.9788C11.3889 13.1115 11.5526 13.214 11.7321 13.2794C11.9115 13.3449 12.1027 13.372 12.2933 13.359C12.4839 13.3459 12.6696 13.293 12.8385 13.2036C13.0073 13.1143 13.1555 12.9905 13.2735 12.8403L18.4245 6.39478C18.5138 6.28247 18.5587 6.14126 18.5507 5.998C18.5427 5.85474 18.4823 5.71942 18.381 5.61778V5.61928Z" fill="#192B4F"/>
<path fill-rule="evenodd" clip-rule="evenodd" d="M4.8133e-06 11.9892C0.00157287 10.2429 0.384264 8.51801 1.12136 6.9349C1.85846 5.35179 2.9322 3.94863 4.26763 2.82337C5.60306 1.69812 7.16799 0.877894 8.85318 0.419953C10.5384 -0.0379886 12.3032 -0.122608 14.0245 0.172002C15.7457 0.466611 17.382 1.13335 18.8189 2.12567C20.2559 3.118 21.4589 4.41199 22.3441 5.91732C23.2293 7.42265 23.7753 9.10303 23.9439 10.8412C24.1126 12.5793 23.8998 14.3333 23.3205 15.9807C22.6575 17.8602 20.553 18.3837 18.9225 17.8557C16.9635 17.2212 14.2125 16.4892 12 16.4892C9.789 16.4892 7.035 17.2212 5.0775 17.8557C3.447 18.3837 1.3425 17.8602 0.679505 15.9807C0.228557 14.6983 -0.00121271 13.3486 4.8133e-06 11.9892ZM12 1.48923C10.3206 1.48879 8.66552 1.89122 7.17377 2.66272C5.68203 3.43423 4.39711 4.55231 3.42685 5.92313C2.4566 7.29394 1.82932 8.8775 1.59766 10.5409C1.36601 12.2043 1.53673 13.899 2.0955 15.4827C2.4 16.3452 3.48 16.7967 4.6155 16.4277C6.5955 15.7887 9.537 14.9892 12 14.9892C14.463 14.9892 17.406 15.7872 19.3845 16.4292C20.52 16.7967 21.6 16.3452 21.9045 15.4827C22.4633 13.899 22.634 12.2043 22.4023 10.5409C22.1707 8.8775 21.5434 7.29394 20.5732 5.92313C19.6029 4.55231 18.318 3.43423 16.8262 2.66272C15.3345 1.89122 13.6794 1.48879 12 1.48923Z" fill="#192B4F"/>
</svg>
