<svg width="21" height="22" viewBox="0 0 21 22" fill="none" xmlns="http://www.w3.org/2000/svg">
<path fill-rule="evenodd" clip-rule="evenodd" d="M10.084 0C8.02862 0 6.05738 0.816516 4.60397 2.26992C3.15056 3.72333 2.33405 5.69457 2.33405 7.75V8.454C2.33399 9.15089 2.12766 9.83218 1.74105 10.412L0.594048 12.135C-0.739952 14.135 0.278049 16.853 2.59705 17.485C3.35238 17.691 4.11371 17.8653 4.88105 18.008L4.88305 18.013C5.65105 20.065 7.70605 21.5 10.084 21.5C12.462 21.5 14.517 20.065 15.286 18.013L15.288 18.008C16.0561 17.8645 16.8181 17.69 17.5721 17.485C19.8911 16.853 20.909 14.135 19.575 12.135L18.427 10.412C18.0404 9.83218 17.8341 9.15089 17.834 8.454V7.75C17.834 5.69457 17.0175 3.72333 15.5641 2.26992C14.1107 0.816516 12.1395 0 10.084 0ZM13.46 18.287C11.217 18.5546 8.95009 18.5546 6.70705 18.287C7.41805 19.308 8.65505 20 10.084 20C11.513 20 12.749 19.308 13.46 18.287ZM3.83405 7.75C3.83405 6.0924 4.49253 4.50269 5.66463 3.33058C6.83673 2.15848 8.42645 1.5 10.084 1.5C11.7417 1.5 13.3314 2.15848 14.5035 3.33058C15.6756 4.50269 16.334 6.0924 16.334 7.75V8.454C16.334 9.447 16.628 10.418 17.179 11.244L18.327 12.967C18.5049 13.2334 18.6169 13.5383 18.6537 13.8565C18.6906 14.1747 18.6512 14.4971 18.5389 14.7971C18.4265 15.0971 18.2444 15.3661 18.0077 15.5819C17.7709 15.7976 17.4862 15.954 17.177 16.038C12.5329 17.3046 7.63424 17.3046 2.99005 16.038C2.68108 15.9539 2.39653 15.7976 2.15987 15.5819C1.92321 15.3662 1.74121 15.0973 1.62888 14.7975C1.51656 14.4976 1.47713 14.1754 1.51384 13.8573C1.55056 13.5392 1.66237 13.2344 1.84005 12.968L2.99005 11.244C3.54059 10.4177 3.83425 9.44692 3.83405 8.454V7.75Z" fill="#474747"/>
</svg>
