<svg width="23" height="23" viewBox="0 0 23 23" fill="none" xmlns="http://www.w3.org/2000/svg">
<path d="M5.0625 5.625H0.9375C0.688947 5.62529 0.450656 5.72415 0.274903 5.8999C0.099149 6.07566 0.000285344 6.31395 0 6.5625V21.5625C0.000285344 21.8111 0.099149 22.0493 0.274903 22.2251C0.450656 22.4009 0.688947 22.4997 0.9375 22.5H5.0625C5.31105 22.4997 5.54934 22.4009 5.7251 22.2251C5.90085 22.0493 5.99971 21.8111 6 21.5625V6.5625C5.99971 6.31395 5.90085 6.07566 5.7251 5.8999C5.54934 5.72415 5.31105 5.62529 5.0625 5.625ZM4.5 21H1.5V7.125H4.5V21ZM13.3125 10.5H9.1875C8.93895 10.5003 8.70066 10.5991 8.5249 10.7749C8.34915 10.9507 8.25029 11.1889 8.25 11.4375V21.5625C8.25029 21.8111 8.34915 22.0493 8.5249 22.2251C8.70066 22.4009 8.93895 22.4997 9.1875 22.5H13.3125C13.5611 22.4997 13.7993 22.4009 13.9751 22.2251C14.1509 22.0493 14.2497 21.8111 14.25 21.5625V11.4375C14.2497 11.1889 14.1509 10.9507 13.9751 10.7749C13.7993 10.5991 13.5611 10.5003 13.3125 10.5ZM12.75 21H9.75V12H12.75V21ZM21.5625 0H17.4375C17.1889 0.000285344 16.9507 0.099149 16.7749 0.274903C16.5991 0.450656 16.5003 0.688947 16.5 0.9375V21.5625C16.5003 21.8111 16.5991 22.0493 16.7749 22.2251C16.9507 22.4009 17.1889 22.4997 17.4375 22.5H21.5625C21.8111 22.4997 22.0493 22.4009 22.2251 22.2251C22.4009 22.0493 22.4997 21.8111 22.5 21.5625V0.9375C22.4997 0.688947 22.4009 0.450656 22.2251 0.274903C22.0493 0.099149 21.8111 0.000285344 21.5625 0ZM21 21H18V1.5H21V21Z" fill="#1C2E51"/>
</svg>
