<svg width="21" height="12" viewBox="0 0 21 12" fill="none" xmlns="http://www.w3.org/2000/svg">
<path d="M5.40712 5.47201C6.33414 4.37825 7.57466 3.59554 8.96096 3.2297C10.3473 2.86385 11.8125 2.93252 13.1585 3.42642C14.5045 3.92031 15.6663 4.81562 16.487 5.99128C17.3077 7.16694 17.7475 8.56625 17.7471 10C17.7471 10.3978 17.9052 10.7794 18.1865 11.0607C18.4678 11.342 18.8493 11.5 19.2471 11.5C19.6449 11.5 20.0265 11.342 20.3078 11.0607C20.5891 10.7794 20.7471 10.3978 20.7471 10C20.7471 4.47701 16.2701 7.50652e-06 10.7471 7.50652e-06C9.34872 -0.00170839 7.96561 0.290768 6.68762 0.858438C5.40963 1.42611 4.26535 2.25627 3.32912 3.29501L2.98212 1.33001C2.95141 1.13292 2.8817 0.943935 2.77707 0.774114C2.67244 0.604292 2.53499 0.457044 2.37276 0.340987C2.21053 0.224929 2.02679 0.142393 1.83228 0.0982074C1.63777 0.0540219 1.4364 0.0490748 1.23995 0.0836557C1.0435 0.118237 0.855928 0.191651 0.688198 0.299602C0.520468 0.407554 0.375953 0.547875 0.263109 0.712354C0.150266 0.876832 0.071361 1.06217 0.0310111 1.25751C-0.00933869 1.45285 -0.0103228 1.65428 0.0281165 1.85001L1.07012 7.76001C1.13912 8.15101 1.36012 8.50001 1.68712 8.72801C2.09012 9.01001 2.62112 9.07301 3.07212 8.93001L8.71612 7.93401C8.9132 7.9033 9.10219 7.83359 9.27201 7.72896C9.44183 7.62433 9.58908 7.48688 9.70514 7.32465C9.82119 7.16242 9.90373 6.97868 9.94792 6.78417C9.9921 6.58966 9.99705 6.38829 9.96247 6.19184C9.92789 5.9954 9.85447 5.80782 9.74652 5.64009C9.63857 5.47236 9.49825 5.32784 9.33377 5.215C9.16929 5.10216 8.98396 5.02325 8.78862 4.9829C8.59327 4.94255 8.39184 4.94157 8.19612 4.98001L5.40812 5.47101L5.40712 5.47201Z" fill="#1A2C50"/>
</svg>
